<svg xmlns="http://www.w3.org/2000/svg" xmlns:xlink="http://www.w3.org/1999/xlink" viewBox="0 0 576.33 412.87"><defs><style>.cls-1{isolation:isolate;}.cls-2,.cls-22,.cls-58{fill:#fff;}.cls-3{fill:#eae6ff;}.cls-4{fill:#f9f9f9;}.cls-5{fill:#cc9f86;}.cls-35,.cls-6{fill:#fcc4a6;}.cls-45,.cls-51,.cls-59,.cls-7{fill:none;}.cls-22,.cls-32,.cls-35,.cls-55,.cls-57,.cls-7{stroke:#231f20;}.cls-22,.cls-32,.cls-35,.cls-51,.cls-55,.cls-57,.cls-7{stroke-miterlimit:10;}.cls-7{stroke-width:1.5px;}.cls-8{fill:#333;}.cls-28,.cls-29,.cls-31,.cls-36,.cls-9{opacity:0.35;}.cls-10{fill:#e6e6e6;}.cls-11,.cls-14,.cls-16,.cls-21,.cls-28,.cls-29,.cls-31,.cls-36,.cls-48{mix-blend-mode:multiply;}.cls-11,.cls-48{opacity:0.25;}.cls-12{fill:#fca70c;}.cls-13{fill:#b1affd;}.cls-14{opacity:0.15;}.cls-15{opacity:0.26;}.cls-16{opacity:0.62;}.cls-17{fill:#d5dbda;}.cls-18{fill:#efefef;}.cls-19,.cls-36{fill:#404040;}.cls-20{fill:#cfcfff;}.cls-21{fill:#666;opacity:0.55;}.cls-23{fill:#b5caff;}.cls-24{fill:#c6ffbd;}.cls-25{opacity:0.5;}.cls-26,.cls-54{fill:#ccc;}.cls-27{fill:#828282;}.cls-28{fill:#878787;}.cls-30,.cls-31{fill:#262626;}.cls-32{fill:#f4f4f4;}.cls-33{fill:#b3b3b3;}.cls-34,.cls-51,.cls-54,.cls-58{opacity:0.45;}.cls-37{fill:#ffd2cc;}.cls-38{fill:#231f20;}.cls-39{fill:#8c8c8c;}.cls-40{fill:url(#linear-gradient);}.cls-41{fill:#d7d7d7;}.cls-42{fill:#e6e6e7;}.cls-43{fill:#e4e5e6;}.cls-44{fill:#fdfeff;}.cls-45{stroke:#808285;}.cls-45,.cls-59{stroke-linecap:round;stroke-linejoin:round;stroke-width:0.75px;}.cls-46{fill:#ffb9b0;}.cls-47{fill:#ed9c80;}.cls-48,.cls-50{fill:#8a8a8a;}.cls-49{fill:#91a1cc;}.cls-51{stroke:#58595b;}.cls-52{fill:#0d0d0d;}.cls-53{fill:#483a99;}.cls-55{fill:#a9adff;}.cls-56{fill:#c9c9c9;}.cls-57{fill:#ffd1b3;}.cls-59{stroke:#fff;}.cls-60{fill:#363636;}.cls-61{fill:#f2a181;}.cls-62{fill:#5e5dbb;}.cls-63{fill:#b4b4db;}.cls-64{fill:#d9d9d9;}.cls-65{fill:#170d54;}.cls-66{fill:#ffbe9d;}.cls-67{fill:gray;}.cls-68{fill:#9ecc97;}.cls-69{opacity:0.3;}.cls-70{fill:#3939d3;}.cls-71{fill:#fefefe;}</style><linearGradient id="linear-gradient" x1="98.13" y1="190.51" x2="102.13" y2="203.06" gradientUnits="userSpaceOnUse"><stop offset="0" stop-color="#ffd2cc"/><stop offset="1" stop-color="#ffd2cc"/></linearGradient></defs><g class="cls-1"><g id="Layer_2" data-name="Layer 2"><g id="OBJECTS"><polygon class="cls-2" points="55.12 285.74 51.81 332.01 95.95 332.01 92.91 285.66 55.12 285.74"/><path class="cls-3" d="M63.87,289.81h0a1.41,1.41,0,0,1,1.51-1.28h0a1.3,1.3,0,1,1,0,2.56h0A1.42,1.42,0,0,1,63.87,289.81Zm1.51-.8a.82.82,0,1,0,0,1.59h0a.82.82,0,1,0,0-1.59Zm-1.27.8h0Z"/><path class="cls-3" d="M78.92,289.78h0a1.16,1.16,0,0,1,.35-.83,1.64,1.64,0,0,1,1.16-.46h0A1.43,1.43,0,0,1,82,289.77a1.2,1.2,0,0,1-.46.92,1.7,1.7,0,0,1-1.06.36h0A1.41,1.41,0,0,1,78.92,289.78Zm1.51-.8a1.12,1.12,0,0,0-.81.31.64.64,0,0,0-.21.48h0a.93.93,0,0,0,1,.79h0a1.19,1.19,0,0,0,.75-.25.71.71,0,0,0,.28-.54.94.94,0,0,0-1-.79Z"/><path class="cls-3" d="M72.46,299.11h.43a8.11,8.11,0,0,0,6.26-2.64,9.36,9.36,0,0,0,1.76-6.76.47.47,0,0,0-.55-.41.48.48,0,0,0-.41.55s.48,3.58-1.55,6a7.21,7.21,0,0,1-5.54,2.29c-2.4.07-4.18-.55-5.37-1.87-2.15-2.4-1.62-6.35-1.62-6.39a.49.49,0,0,0-.41-.55.5.5,0,0,0-.56.42c0,.18-.6,4.42,1.86,7.16A7.27,7.27,0,0,0,72.46,299.11Z"/><polygon class="cls-4" points="75.87 298.71 70.6 333.11 118.51 333 113.66 298.62 75.87 298.71"/><path class="cls-5" d="M58.13,356.79a9.72,9.72,0,1,0,9.72,9.72A9.72,9.72,0,0,0,58.13,356.79Zm0,14.23a4.51,4.51,0,1,1,4.53-4.51A4.5,4.5,0,0,1,58.13,371Z"/><path class="cls-6" d="M56.53,356.79a9.72,9.72,0,1,0,9.72,9.72A9.72,9.72,0,0,0,56.53,356.79Zm0,14.23a4.51,4.51,0,1,1,4.53-4.51A4.51,4.51,0,0,1,56.53,371Z"/><path class="cls-5" d="M113,356.79a9.72,9.72,0,1,0,9.71,9.72A9.72,9.72,0,0,0,113,356.79ZM113,371a4.51,4.51,0,1,1,4.53-4.51A4.51,4.51,0,0,1,113,371Z"/><path class="cls-6" d="M111.44,356.79a9.72,9.72,0,1,0,9.72,9.72A9.72,9.72,0,0,0,111.44,356.79Zm0,14.23a4.51,4.51,0,1,1,4.53-4.51A4.5,4.5,0,0,1,111.44,371Z"/><path class="cls-7" d="M186.38,247.7h-29.2a8.92,8.92,0,0,0-7.55,4.19L132,280.23"/><path class="cls-7" d="M53.53,332.32h65.25a7.08,7.08,0,0,0,7-6l6.75-42.12a7.07,7.07,0,0,0-7-8.19H46.77a7.07,7.07,0,0,0-7,8.19l6.75,42.12A7.07,7.07,0,0,0,53.53,332.32Z"/><line class="cls-7" x1="86.15" y1="276.05" x2="86.15" y2="332.32"/><line class="cls-7" x1="129.32" y1="304.18" x2="42.99" y2="304.18"/><line class="cls-7" x1="111.92" y1="276.05" x2="106.34" y2="332.32"/><line class="cls-7" x1="61.67" y1="276.05" x2="66.82" y2="332.32"/><path class="cls-7" d="M124.23,329.76l10.57,15.72a6.44,6.44,0,0,1-5.35,10H43"/><rect x="261.94" y="337.23" width="89.51" height="24.08"/><rect class="cls-8" x="152.02" y="121.85" width="310.3" height="223.24" rx="9.39"/><rect class="cls-2" x="160.69" y="129.99" width="292.02" height="193.68" rx="5.77"/><path class="cls-8" d="M230.79,359.21H382.61a7.32,7.32,0,0,1,7.32,7.32v7.86a0,0,0,0,1,0,0H223.47a0,0,0,0,1,0,0v-7.86A7.32,7.32,0,0,1,230.79,359.21Z"/><g class="cls-9"><rect class="cls-10" x="230.43" y="143.36" width="204.33" height="137.35" rx="8.95"/></g><g class="cls-11"><rect class="cls-12" x="249.85" y="243.69" width="8.9" height="22.35"/><rect class="cls-13" x="269.9" y="224.08" width="8.9" height="41.96"/><rect class="cls-12" x="289.96" y="228.42" width="8.9" height="37.62"/><rect class="cls-13" x="310.02" y="207.17" width="8.9" height="58.86"/><g class="cls-14"><rect class="cls-15" x="269.9" y="224.08" width="4.09" height="41.96"/></g><g class="cls-14"><rect class="cls-15" x="249.85" y="243.69" width="4.08" height="22.35"/></g><g class="cls-16"><rect class="cls-15" x="310.02" y="207.17" width="4.09" height="58.86"/></g><g class="cls-14"><rect class="cls-15" x="289.96" y="228.42" width="4.09" height="37.62"/></g><polygon class="cls-17" points="323.63 272.19 243.97 272.19 243.97 187.37 245.18 187.37 245.18 270.97 323.63 270.97 323.63 272.19"/><polygon class="cls-17" points="252.15 233.23 251.34 232.32 272.18 213.61 291.48 217.81 312.38 194.54 313.28 195.35 291.91 219.14 272.52 214.93 252.15 233.23"/><polygon class="cls-17" points="314.92 198.79 309.02 193.14 316.63 191.1 314.92 198.79"/><rect class="cls-13" x="331.17" y="242.11" width="6.11" height="6.11"/><rect class="cls-12" x="331.17" y="252.82" width="6.11" height="6.11"/><rect class="cls-18" x="338.97" y="255.46" width="19.38" height="3.47"/><rect class="cls-18" x="338.97" y="244.75" width="19.38" height="3.47"/><rect class="cls-13" x="367.12" y="242.11" width="6.11" height="6.11"/><rect class="cls-12" x="367.12" y="252.82" width="6.11" height="6.11"/><rect class="cls-18" x="374.91" y="255.46" width="19.38" height="3.47"/><rect class="cls-18" x="374.91" y="244.75" width="19.38" height="3.47"/><rect x="399.49" y="242.11" width="6.11" height="6.11"/><rect x="399.49" y="252.82" width="6.11" height="6.11"/><rect class="cls-18" x="407.28" y="255.46" width="12.75" height="3.47"/><rect class="cls-18" x="407.28" y="244.75" width="12.75" height="3.47"/><rect class="cls-18" x="332.31" y="183.71" width="87.72" height="1.59"/><rect class="cls-18" x="243.97" y="164.13" width="176.06" height="3.65"/><rect class="cls-18" x="332.05" y="188.67" width="87.98" height="1.59"/><rect class="cls-18" x="332.05" y="178.75" width="87.98" height="1.59"/><rect class="cls-18" x="332.05" y="193.63" width="87.98" height="1.59"/><rect class="cls-18" x="332.05" y="198.59" width="87.98" height="1.59"/><rect class="cls-18" x="332.05" y="203.54" width="87.98" height="1.59"/><rect class="cls-18" x="332.05" y="208.5" width="87.98" height="1.59"/><rect class="cls-18" x="332.05" y="213.46" width="87.98" height="1.59"/><rect class="cls-18" x="332.05" y="218.42" width="87.98" height="1.59"/><rect class="cls-18" x="342.82" y="223.38" width="77.21" height="1.59"/><path class="cls-19" d="M425.8,143.36H239.38a9,9,0,0,0-8.95,9v7.83H434.76v-7.83A9,9,0,0,0,425.8,143.36Z"/><path class="cls-20" d="M408.48,152.06a2.59,2.59,0,1,1-2.58-2.58A2.59,2.59,0,0,1,408.48,152.06Z"/><circle class="cls-20" cx="416.42" cy="152.06" r="2.58"/><circle class="cls-20" cx="426.94" cy="152.06" r="2.58"/></g><rect class="cls-21" x="176.15" y="173.74" width="204.33" height="137.35" rx="8.95"/><rect class="cls-22" x="180.29" y="168.39" width="204.33" height="137.35" rx="8.95"/><rect class="cls-6" x="199.71" y="268.72" width="8.9" height="22.35"/><rect class="cls-23" x="219.77" y="249.11" width="8.9" height="41.96"/><rect class="cls-6" x="239.83" y="253.45" width="8.9" height="37.62"/><rect class="cls-24" x="259.88" y="232.21" width="8.9" height="58.86"/><g class="cls-14"><rect class="cls-25" x="219.77" y="249.11" width="4.09" height="41.96"/></g><g class="cls-14"><rect class="cls-25" x="199.71" y="268.72" width="4.09" height="22.35"/></g><g class="cls-16"><rect class="cls-15" x="259.88" y="232.21" width="4.08" height="58.86"/></g><g class="cls-14"><rect class="cls-25" x="239.83" y="253.45" width="4.09" height="37.62"/></g><polygon points="273.49 297.22 193.84 297.22 193.84 219.98 195.05 219.98 195.05 296 273.49 296 273.49 297.22"/><polygon points="202.02 258.26 201.21 257.36 222.04 238.65 241.34 242.84 262.24 219.57 263.15 220.38 241.78 244.18 222.39 239.96 202.02 258.26"/><polygon points="264.79 223.82 258.89 218.17 266.5 216.13 264.79 223.82"/><rect class="cls-26" x="281.04" y="267.14" width="6.11" height="6.11"/><rect class="cls-27" x="281.04" y="277.85" width="6.11" height="6.11"/><rect class="cls-18" x="288.83" y="280.49" width="19.38" height="3.47"/><rect class="cls-18" x="288.83" y="269.78" width="19.38" height="3.47"/><rect class="cls-26" x="316.98" y="267.14" width="6.11" height="6.11"/><rect class="cls-27" x="316.98" y="277.85" width="6.11" height="6.11"/><rect class="cls-18" x="324.78" y="280.49" width="19.38" height="3.47"/><rect class="cls-18" x="324.78" y="269.78" width="19.38" height="3.47"/><rect class="cls-26" x="349.35" y="267.14" width="6.11" height="6.11"/><rect class="cls-27" x="349.35" y="277.85" width="6.11" height="6.11"/><rect class="cls-18" x="357.15" y="280.49" width="12.75" height="3.47"/><rect class="cls-18" x="357.15" y="269.78" width="12.75" height="3.47"/><rect class="cls-18" x="282.18" y="208.74" width="87.72" height="1.59"/><rect class="cls-18" x="193.84" y="189.16" width="176.06" height="3.65"/><rect class="cls-18" x="281.92" y="213.7" width="87.98" height="1.59"/><rect class="cls-18" x="281.92" y="203.78" width="87.98" height="1.59"/><rect class="cls-18" x="281.92" y="218.66" width="87.98" height="1.59"/><rect class="cls-18" x="281.92" y="223.62" width="87.98" height="1.59"/><rect class="cls-18" x="281.92" y="228.58" width="87.98" height="1.59"/><rect class="cls-18" x="281.92" y="233.54" width="87.98" height="1.59"/><rect class="cls-18" x="281.92" y="238.5" width="87.98" height="1.59"/><rect class="cls-18" x="281.92" y="243.46" width="87.98" height="1.59"/><rect class="cls-18" x="292.69" y="248.42" width="77.21" height="1.59"/><path class="cls-22" d="M375.67,168.39H189.25a9,9,0,0,0-9,9v7.83H384.62v-7.83A9,9,0,0,0,375.67,168.39Z"/><path class="cls-6" d="M196.34,177.1a2.58,2.58,0,1,1-2.58-2.59A2.58,2.58,0,0,1,196.34,177.1Z"/><path class="cls-23" d="M206.87,177.1a2.59,2.59,0,1,1-2.59-2.59A2.59,2.59,0,0,1,206.87,177.1Z"/><path class="cls-24" d="M217.39,177.1a2.59,2.59,0,1,1-2.58-2.59A2.59,2.59,0,0,1,217.39,177.1Z"/><path class="cls-28" d="M444.64,122H396.79q.48,23.28.79,46.55a18.37,18.37,0,0,1-.87,7h-.07c-.64,0-.35.17-.57,1.3,0,0,0,0,0,.06-1.93,3.16-5.71,4.88-9.38,5.7a.86.86,0,0,0,.05.51,1.18,1.18,0,0,0-.37,1.44c.23.52,3,1.23,6.71.82a17.64,17.64,0,0,0,4.15-1.15,6.36,6.36,0,0,0,1.52-1,4.94,4.94,0,0,0,1.4-.33l.15.14,4.29-1.87s-.47-2.7-.84-4.1a2.38,2.38,0,0,0-.28-.66,197.34,197.34,0,0,0,8.4-29.86c-.78,12.6-5.31,38.2-5.65,39.08a6.55,6.55,0,0,1-5.44,3.82c-1,.09-6-.2-5.46,2.09.13.55,2.72,1.72,6.47,2a18.12,18.12,0,0,0,4.28-.41,7.81,7.81,0,0,0,2.66-1.46l.58.78,4.54-1.1s0-1.18,0-2.6a5.8,5.8,0,0,0-1-2.77l.07-2.58,2.51-.3s5.06-16.34,7.46-21.9a49.73,49.73,0,0,0,2.71-7,49.7,49.7,0,0,0,1-8.71,77.31,77.31,0,0,1,2.93-15.74,2.19,2.19,0,0,1,.43-.91,2.38,2.38,0,0,1,1.65-.58c6.43-.59,9.38.5,13.41-.74,5.3-1.65,5.87-4.06,6.12-4.17A16.6,16.6,0,0,0,444.64,122Z"/><g class="cls-29"><path class="cls-30" d="M462.32,229.11v-55.5c-8.27,10.84-16.46,20.55-24.74,31.38-3.59,4.7-17.65,20.27-8.06,26.51,2.45,1.6,6.71,1.52,8.84,1.68,7.66.54,15.24-1.58,22.68-3.68C461.47,229.38,461.9,229.25,462.32,229.11Z"/></g><path class="cls-31" d="M462.32,241l-4.6.36-.09-.27-3.58.28-1.08-3a4.63,4.63,0,0,0-4.52-2.87,2.47,2.47,0,0,0-2.29,3.43c.18.53.71,2,1.07,3l-3.78.29.08.26-7.77.6c-1.22,0-3,1.6-2.65,2.71l.07.16a1.43,1.43,0,0,0,0,.29l6.72,19-.17,79.88h7.8l14.76-57.38Zm-12.12-.59a2.63,2.63,0,0,1-2.54-1.61,1.39,1.39,0,0,1,1.29-1.93,2.6,2.6,0,0,1,2.53,1.61A1.39,1.39,0,0,1,450.2,240.45Z"/><path class="cls-31" d="M171.52,208.13c-1.73,1.91-3.78,6-4.61,7.74s-1.83,2.71-4.3,3.87c-3.42,1.56-7.07,3.06-10.59,4.44v9.06c7.15-4.3,13.62-8.31,13.73-8.35,5.46,2.09,10-2.45,11.5-5.73.65-1.47-.34-2.07-.38-2.77,0-.36.45-2.49.38-2.76-.43-1.92-5.57-.24-5.14-1.16a6.52,6.52,0,0,1,2.14-3.2c2.51-1.72,4.44-3.62,4.44-4.34C178.69,203.68,172.12,207.47,171.52,208.13Z"/><rect class="cls-32" x="448.35" y="254.18" width="120.65" height="139.52" rx="6.95"/><rect class="cls-33" x="459.51" y="268.78" width="102.03" height="28.66" rx="1.77"/><rect class="cls-33" x="459.51" y="307.6" width="26.24" height="18.19" rx="1.77"/><rect class="cls-33" x="497.41" y="307.6" width="26.24" height="18.19" rx="1.77"/><rect class="cls-33" x="535.31" y="307.6" width="26.24" height="18.19" rx="1.77"/><rect class="cls-33" x="459.51" y="336.85" width="26.24" height="18.19" rx="1.77"/><rect class="cls-33" x="497.41" y="336.85" width="26.24" height="18.19" rx="1.77"/><rect class="cls-33" x="459.51" y="366.09" width="26.24" height="18.19" rx="1.77"/><rect class="cls-33" x="497.41" y="366.09" width="26.24" height="18.19" rx="1.77"/><rect class="cls-33" x="535.31" y="336.85" width="26.24" height="47.43" rx="1.77"/><g class="cls-34"><path class="cls-10" d="M457.66,270.1a3.17,3.17,0,0,1,3.17-3.17h95.69a3.17,3.17,0,0,1,3.17,3.17v22.32a3.17,3.17,0,0,1-3.17,3.17H460.83"/><rect class="cls-10" x="457.66" y="305.75" width="26.24" height="18.19" rx="1.77"/><rect class="cls-10" x="495.56" y="305.75" width="26.24" height="18.19" rx="1.77"/><rect class="cls-10" x="533.46" y="305.75" width="26.24" height="18.19" rx="1.77"/><rect class="cls-10" x="457.66" y="334.99" width="26.24" height="18.19" rx="1.77"/><rect class="cls-10" x="495.56" y="334.99" width="26.24" height="18.19" rx="1.77"/><rect class="cls-10" x="457.66" y="364.24" width="26.24" height="18.19" rx="1.77"/><rect class="cls-10" x="495.56" y="364.24" width="26.24" height="18.19" rx="1.77"/></g><path class="cls-35" d="M557.92,335H535.23a1.78,1.78,0,0,0-1.77,1.78v43.88a1.78,1.78,0,0,0,1.77,1.78h22.69a1.78,1.78,0,0,0,1.77-1.78V336.77A1.78,1.78,0,0,0,557.92,335Z"/><path class="cls-36" d="M448.35,287.08l3.24,8.51h13.52s-.94,36.77-1,43.66,5.67,54.45,5.67,54.45h7.83l-.81-60L487.9,303s8.36,41.18,11.82,48.06,22.07,42.65,22.07,42.65H529l-18.45-78.85-7.92-27.4-39.93-18.67-14.33,1.42"/><path d="M117.33,170.46c2.4,4.14.33,9.8,2.75,13.92,1,1.66,2.61,3,3.07,4.81a4.19,4.19,0,0,1-6,4.72,5,5,0,0,0-.93-.46c-1.19-.35-2.28.71-3.3,1.41a5,5,0,0,1-4.36.77c-1.85-.62-3-2.49-3.62-4.35-1.73-5.19-.5-10.88,1.1-16.11.8-2.62,2-5.52,4.54-6.47"/><path class="cls-37" d="M173,214.5c0,.57.91,1.07.33,2.28-1.3,2.7-5.36,6.45-10.21,4.73-.21.07-26.79,15.44-28.84,15.44s-16-13.2-20.56-29.54c-1.09-3.9-.66-8.48,3-10.45a8.61,8.61,0,0,1,5,4.47c3,5.7,12.07,24.59,14.07,25.3,2.5-1.66,14.68-5.28,24.53-9.47,2.2-1,3-1.76,3.83-3.19a31.37,31.37,0,0,1,4.09-6.39c.53-.54,6.36-3.66,6.36-2.63,0,.59-1.71,2.16-3.94,3.58a5.29,5.29,0,0,0-1.9,2.64c-.38.75,4.18-.63,4.56.95C173.4,212.44,173,214.2,173,214.5Z"/><path class="cls-2" d="M115.65,196.48a12,12,0,0,1,7.94,6.15,24.78,24.78,0,0,1,1.08,2.48c1.42,3.61,3.37,6.87,4.78,10.47a21.08,21.08,0,0,1-6.25,3,13.25,13.25,0,0,1-5.82.78,3,3,0,0,1-1-.21,3.3,3.3,0,0,1-1-.88q-.9-1-1.77-2.13a5.7,5.7,0,0,1-1.18-2,6.16,6.16,0,0,1,.28-3.17"/><path class="cls-38" d="M115.62,196.62a12.93,12.93,0,0,1,8.06,7c.87,2,1.63,3.95,2.57,5.88s2,4.06,2.85,6.18l.09-.37a16.9,16.9,0,0,1-4.83,2.44A17,17,0,0,1,119,219a4.23,4.23,0,0,1-2.74-.47,14.28,14.28,0,0,1-1.87-2.15,7.17,7.17,0,0,1-1.52-2.37,7,7,0,0,1,0-3.06c0-.19-.26-.19-.32,0A5.74,5.74,0,0,0,112,214a6,6,0,0,0,1.48,2.64,18.44,18.44,0,0,0,2.17,2.5,3.83,3.83,0,0,0,2.56.69,16.55,16.55,0,0,0,6.2-1.26,18.76,18.76,0,0,0,5.34-2.74.36.36,0,0,0,.09-.36c-.86-2.17-1.91-4.25-2.94-6.35-.5-1-1-2.07-1.45-3.13s-.82-2.12-1.32-3.14a11.6,11.6,0,0,0-8.41-6.52.14.14,0,0,0-.07.28Z"/><g class="cls-29"><path class="cls-39" d="M119.13,206.31a1.26,1.26,0,0,0-.45-.38.83.83,0,0,0-1,.42,2.2,2.2,0,0,0-.2,1.11,15.34,15.34,0,0,0,.68,4.31l-.45,7.6h0a13.1,13.1,0,0,0,5.44-.79c.82-.3,1.71-.62,2.6-1C124.89,213.33,122,209.7,119.13,206.31Z"/></g><path class="cls-40" d="M107.35,188.93s-.1,4.76.63,5.07a18.26,18.26,0,0,0,3.07.95l0,9.85-13.12-2-9-5s9.38-3.11,9.47-4-.52-6.2-.52-6.2"/><path class="cls-37" d="M87.19,331.37v0c-3.59,17-1.88,40.41-2.68,53.23.19.05,4.88.63,4.88.63s11.1-54,13.12-64.36a16.18,16.18,0,0,0,.26-2c.48-7.79-6.54-8.18-10.49-1.75a28.35,28.35,0,0,0-1.81,3.48c-.22.5-.43,1-.64,1.57v0a51.71,51.71,0,0,0-1.74,5.43l0,.2c-.17.54-.3,1.09-.43,1.65l0,.12C87.43,330.2,87.31,330.78,87.19,331.37Z"/><path class="cls-37" d="M108.21,270.27c-.13,1.41-.88,8.11-1.78,16-.77,6.65-1.62,14.14-2.27,20.07-.49,4.45-.85,8-1,9.68a22.11,22.11,0,0,1-.39,2.87v0c-1.69,7.77-7.07,8.22-10.33,6.42a6.61,6.61,0,0,1-1.24-.85,4.14,4.14,0,0,1-1.39-2.29v0c-.21-1.59-.41-3.77-.6-6.36v0s0,0,0,0l0,0c-.39-5.06-.73-11.55-1-17.88-.36-7.78-.59-15.27-.64-19.5,0-.24,0-.46,0-.69-.06-13,11.85-21.26,19.25-17.24l.26.13.28.17c.85.56,1.13,2.5,1.15,4.71C108.44,267,108.32,268.81,108.21,270.27Z"/><path class="cls-37" d="M90.09,319.16l-.9-3.39s0,0,0,0a54.53,54.53,0,0,1-1.13,11.85l0,.2c-.13.53-.27,1.1-.43,1.65l0,.12a9.58,9.58,0,0,0-.38,1.74v0c0,1.54,3.27-5.3,4-6.89.09-.21.15-.32.15-.32l-.89-3.56Z"/><path class="cls-37" d="M115.74,334.62v0c-.34,17.83,5.17,38.79,6.62,51.73.18,0,4.5-.57,4.5-.57s.82-54.61.88-65.4a16.11,16.11,0,0,0-.11-2.06c-.88-7.86-7.26-6.51-9.73.87a32.09,32.09,0,0,0-1,3.9c-.12.56-.22,1.12-.32,1.72v0q-.45,2.76-.64,5.84v.21c-.05.58-.08,1.16-.1,1.75v.13C115.77,333.4,115.76,334,115.74,334.62Z"/><path class="cls-37" d="M119.45,327.35a4.55,4.55,0,0,1-1.25-.54,3.57,3.57,0,0,1-1.64-1.93v0c-.47-1.54-1-3.68-1.65-6.21a.06.06,0,0,1,0,0l0-.07c-1.21-4.91-2.63-11.29-4-17.5-1.63-7.64-3.11-15.05-3.88-19.25-.06-.23-.72-3.28-.76-3.51-2.28-13,7.87-21.5,15.25-19l.29.1c1.48.59,1.9,5.81,2.23,9.34s2.84,40.09,3.47,46.7a28,28,0,0,1,.13,3C127.46,326.54,122.7,328.33,119.45,327.35Z"/><path class="cls-37" d="M116.29,321.76l-1.39-3.15s0,0,0,0a60.88,60.88,0,0,1,1,12.06v.21c0,.56-.05,1.16-.1,1.75v.13a12.54,12.54,0,0,0-.05,1.82v0c.26,1.53,2-6.08,2.45-7.85l.08-.36-1.4-3.32Z"/><path d="M93.66,245.26S84.1,257.4,85.08,269.6c.41,5.08,1,9.55,1.62,14.66.08.74,1.23,11.46.9,11.47,0,0,19.7,6.09,38.72-1.88,0-1.3,1.53-26.27-8.75-50.08A166.48,166.48,0,0,1,93.66,245.26Z"/><path class="cls-37" d="M38.5,210.67l3.6-4.28L64,226s10.71-14.26,13.65-18.72c3.24-4.89,6.17-9.08,10.9-9.9,1.09.68-.37,18.26-.94,18.69C81,221,68.16,237,64.06,237.83,59.33,238.79,38.5,210.67,38.5,210.67Z"/><path class="cls-2" d="M119,225.75c2.65-2.93,4.5-5.05,4.58-8.52.09-4.24-4-8.73-4.49-10-1.86-5.17-.86-8.64-2-10.31-4.11-1.22-4.7-1.58-6-2,0,2.36.41,7.5-3.65,9.17-7.44-1-10.3-9.49-10.3-9.49s-3.6,1.27-6.71,2.25l-.18-.26s-4.48,0-6.41,1.64-11.13,16.18-11.13,16.18a6.47,6.47,0,0,0,2.42,5.07,13.44,13.44,0,0,0,6.63,2.87s4.3-4.27,6.94-6.45c.27,1.06.52,2,.75,2.67s.45,1.45.71,2.42c1.69,6.28,4.21,18.63,3.54,24.23,6.32,4.55,20.09,1.85,23.91-1.48,1-.22-.15-1.91,0-4.59C117.85,234,118.67,226.27,119,225.75Z"/><path class="cls-38" d="M119,225.72c4.2-4.27,6.19-8.45,2.82-14-.88-1.76-2.39-3.23-3-5.12a33.18,33.18,0,0,1-1.27-7.8A4.18,4.18,0,0,0,117,197l.08.06c-2-.56-4-1.3-6-1.92l.24-.18c.22,3.38-.1,8.12-3.87,9.42-5.1-.7-8.79-5.05-10.55-9.64l.38.18-6.71,2.28-.23.07-.31-.47.27.15a18.25,18.25,0,0,0-3.21.37c-3.56.44-4.88,3.72-6.82,6.3-2.36,3.35-5.2,8.08-7.12,10.87,0,4.42,4.82,6.93,8.7,7.45l-.37.13c2.26-2.23,4.51-4.44,6.95-6.51l.57-.49c.68,2.41,1.63,5.54,2.22,7.95,1.63,7.32,3.47,14.73,3,22.3l-.19-.43c5.82,4,17.86,2.68,23.5-1.26l0,0h0c.58-.14.07-1.38.06-1.85-.47-3.81.36-7.66.65-11.46a31.48,31.48,0,0,1,.73-4.55Zm.08.06a76.34,76.34,0,0,0-1.07,9.07c-.2,2.67-.52,5.33.16,8,.09.42,0,1.08-.53,1.16l.09,0c-5.86,4.31-18.38,5.94-24.52,1.56.43-7.45-1.38-15-3-22.24-.57-2.42-1.35-4.72-2-7.2l.78.27c-2.45,2.05-4.78,4.3-7.09,6.55-4.4-.55-9.94-3.56-9.55-8.63,3.71-5.5,6.92-11.36,11.36-16.31,2-1.36,4.38-1.51,6.69-1.63l.28.42-.37-.13L97,194.35l.28-.09.1.28a15.48,15.48,0,0,0,6.67,8.21,10.94,10.94,0,0,0,3.38,1.12l-.13,0c3.59-1.47,3.69-5.85,3.56-9.19,2.13.69,4.24,1.43,6.35,2.12.72,1.19.61,2.59.74,3.91a23.23,23.23,0,0,0,1,5.8c.61,1.89,2.09,3.32,3,5.09,3.37,5.62,1.36,9.89-2.89,14.16Z"/><path class="cls-37" d="M116.85,169.51s.75,9.19-.82,14c-1.16,3.57-5.93,6.9-9.92,6.86-11,0-13-14.92-12.89-15.64s16.19-7,16.19-7Z"/><path d="M137.75,391.55c-3.9.71-8.08-.39-9.79-.1-1.42.24-5,1.17-6.41-.06s-1.14-5.53.42-6.11a5.67,5.67,0,0,0,1,.25,10.94,10.94,0,0,0,4.62-.38c3,1.22,3.09,1.75,6.47,2.44a22.26,22.26,0,0,1,4.3,1.3C139.84,389.56,140,391.16,137.75,391.55Z"/><path d="M95.57,393.27c-3.92-.66-6.4-2.82-8.11-3.12-1.41-.25-5-.95-5.35-2.41-.27-1.08.8-5.59,2.47-5.61a5.11,5.11,0,0,0,.87.58,10.66,10.66,0,0,0,4.48,1.2c2.39,2.16,2.31,2.7,5.26,4.48a21.73,21.73,0,0,1,3.61,2.69C100,392.2,97.77,393.65,95.57,393.27Z"/><path d="M87.51,196.79c-.25-.13-.49-.27-.72-.41a6,6,0,0,1-3-3c-.76-2.06-1.12-5.22-.06-7.22.73-1.35,2.09-2.23,3-3.45a10.75,10.75,0,0,0,1.77-6A40.48,40.48,0,0,1,89,170.4c.76-3.54,1.77-6.92,4.5-9.2,4.37-3.65,13.14-5.82,17.91-1.74.86.74,1,1.33,2.2,1.45a8.65,8.65,0,0,1,4,1.16c1.57.91,3.47,2.18,3.25,4.24a7.37,7.37,0,0,1-3,4.34,3.73,3.73,0,0,1-1.68.38c-1.86,0-3.4-1.18-5.23-1a3.4,3.4,0,0,0-2.28,1.27c-.66.81-.57,1.94-1.34,2.7-1.23,1.21-3.14,1.11-4.6,1.9a1.53,1.53,0,0,0-.63.52,1.71,1.71,0,0,0-.16.78l-.08,2.31c-.72-.32-.8-1.35-1.4-1.87a1.65,1.65,0,0,0-2.09.14,3.48,3.48,0,0,0-1,2,5.74,5.74,0,0,0,.4,2.75c.48,1.57,1.82,3,2.9,1.94.79,1.16-.07,3.09-.1,4.39,0,1,0,3.1,1,3.78s2.3.15,2.36,1.76-1.43,2.63-2.9,2.81a10.82,10.82,0,0,1-4.33-.75,6.86,6.86,0,0,0-4.35-.22,12.69,12.69,0,0,1-2.44,1.1A3.72,3.72,0,0,1,87.51,196.79Z"/><path class="cls-37" d="M47.64,211.37s-5.15-4.13-5.51-5.26-.42-2.35-.85-3.45a6.45,6.45,0,0,0-3.58-3.56c-1.29-.53-.66-1-2-.7-2.09.4-3.08,2.45-3.92,4-3.56,6.82,6.19,8.12,6.54,8.13.71,0,4.34,4.14,4.34,4.14"/><path class="cls-41" d="M31.36,208.08l3.53,2.35a1,1,0,0,0,1.37-.31l7.76-13-4.6-2.6-8.33,12.19A1,1,0,0,0,31.36,208.08Z"/><path class="cls-42" d="M18.74,180.49l1.21.83,4.92-7.16-1.22-.83a4.1,4.1,0,0,0-5.58,1.45h0A4.07,4.07,0,0,0,18.74,180.49Z"/><polygon class="cls-42" points="14.24 189.22 36.85 192.66 42.02 185.13 30.61 165.38 14.24 189.22"/><polygon class="cls-43" points="15.69 189.54 36.85 192.66 38.91 189.66 21.1 181.65 15.69 189.54"/><path class="cls-42" d="M46.15,198.13h0a2.88,2.88,0,0,0,3.91-1l.91-1.33a2.85,2.85,0,0,0-.47-4h0a2.87,2.87,0,0,0-3.9,1l-.92,1.34A2.86,2.86,0,0,0,46.15,198.13Z"/><path class="cls-43" d="M46.6,192.79l-.92,1.34a2.67,2.67,0,1,0,4.38,3l.92-1.33a2,2,0,0,0,.18-.32,2.62,2.62,0,1,1-4.34-3A2.09,2.09,0,0,0,46.6,192.79Z"/><path class="cls-44" d="M13.51,190h0a1.68,1.68,0,0,0,2.29-.59l15.51-22.6a1.66,1.66,0,0,0-.28-2.34h0a1.68,1.68,0,0,0-2.29.59l-15.51,22.6A1.66,1.66,0,0,0,13.51,190Z"/><path class="cls-41" d="M31.43,164.86,18.52,183.68a1.7,1.7,0,0,1-2.3.59,1.37,1.37,0,0,1-.4-.43l-2.59,3.78a1.66,1.66,0,0,0,.28,2.34,1.68,1.68,0,0,0,2.29-.59l15.51-22.6A1.76,1.76,0,0,0,31.43,164.86Z"/><path class="cls-44" d="M38.85,196.61l1.46,1c2.16,1.47,5.28.66,7-1.81l1.45-2.12c1.7-2.47,1.32-5.66-.84-7.13l-1.46-1c-2.16-1.47-5.28-.66-7,1.81L38,189.47C36.31,191.94,36.69,195.14,38.85,196.61Z"/><path class="cls-41" d="M38.09,189.36l-2.18,3.17a1.61,1.61,0,0,0,.27,2.26l6.8,4.64a1.63,1.63,0,0,0,2.21-.57l2.18-3.17a1.63,1.63,0,0,1-2.21.57l-6.81-4.64A1.61,1.61,0,0,1,38.09,189.36Z"/><path class="cls-37" d="M32.11,204.82a7.13,7.13,0,0,1,1.24-5.32,12.55,12.55,0,0,1,1.27-1.36,1.89,1.89,0,0,1,.76-.51A2.43,2.43,0,0,1,37,198a3,3,0,0,1,1.35,1.34,1.79,1.79,0,0,1-1,2.16.42.42,0,0,0-.19.18c0,.13,0,.28.13.42a3.06,3.06,0,0,1,.52,1.77,1,1,0,0,1-1.21.9c-.27,0-.62-.14-.71.06a.45.45,0,0,0,0,.23,1.88,1.88,0,0,1-.42,1.49.51.51,0,0,1-.32.21,1.1,1.1,0,0,1-.35-.05,4.76,4.76,0,0,1-1.2-.54"/><path class="cls-37" d="M42.1,206.39a26.27,26.27,0,0,1-.42-2.78,6.29,6.29,0,0,0-3-5.18.7.7,0,0,0-.48-.14.56.56,0,0,0-.4.46,1.39,1.39,0,0,0,.1.64c.21.66,1.14,1.89.85,2.57a7.61,7.61,0,0,0-.73,3.21c0,1,.49,2.57,1.65,2.74"/><line class="cls-45" x1="15.88" y1="154.44" x2="20.43" y2="165.17"/><line class="cls-45" x1="6.39" y1="163.98" x2="15.71" y2="170.97"/><line class="cls-45" x1="0.38" y1="176.97" x2="11.97" y2="178.11"/><path class="cls-46" d="M371.78,64.12s-4.17-2.94-4.32-4.17-3-6.23-4-7.23-5.8-2.69-6.85-2.83-7,.35-6.27,1.17,4.61.52,5.36,1l.74.45s-.74,1-.45,1.62-1.27,1.55-.68,2.59-.24,1,.29,2.06c.88,1.79,3.13,2.79,3.73,2.3.44,1.06,2.15,3.23,3.75,3.08s5.49,3.49,5.49,3.49"/><path class="cls-46" d="M435.26,43.22c.15,2.8-.05,7.67.75,8.39s3.38.61,3.38.61-9.24,11.68-10.06,11-11.76-9.55-9.3-10,4.86-.36,4.79-1.63l-.21-3.82"/><path class="cls-46" d="M435.47,40.69a31.88,31.88,0,0,1-1.27,4.14c-.95,2.47-2.36,3.36-5,3.42l-5.52.14c-1.41,0-3.17.08-4.31-.91s-1.15-2.64-1.4-4c-.32-1.74-.59-3.49-.79-5.25a78.41,78.41,0,0,1-.48-10.39,7.5,7.5,0,0,1,.12-1.42,1,1,0,0,1,.24-.52,1.17,1.17,0,0,1,.66-.26A57.86,57.86,0,0,1,428.17,25c2.47.08,5.08.36,7,1.87s2.9,4,3.74,6.32c.13.38.23.87-.1,1.1"/><path class="cls-47" d="M395,169.91a38.24,38.24,0,0,0,1.07,4.81c.48,1.23,4.5.1,4.77-.7s-1.27-6.62-1.27-6.62"/><path class="cls-8" d="M402.28,175c.34,1.32.78,3.86.78,3.86l-4,1.75-.66-.62a7.35,7.35,0,0,1-2.23,1.78,16.89,16.89,0,0,1-3.89,1.08c-3.51.37-6.09-.29-6.3-.77-.87-2,3.79-2.58,4.71-2.82a6.17,6.17,0,0,0,4.41-4.42c.21-1.07-.06-1.26.54-1.22a1.39,1.39,0,0,1,1,.47,2.56,2.56,0,0,0,2.86.66,3,3,0,0,0,1.42-1.18A1.76,1.76,0,0,1,402.28,175Z"/><path d="M412.8,123.05a68.2,68.2,0,0,1-20.52.48c.89,2.55,3.06,5.81,3.89,9.39,2.74,11.84,3.69,27.74,4.39,37.58,0,0-1.32,2.52-5.53.6-6.29-15.54-17.28-47-17.18-53.89.13-8.7,21.85-10.8,37.76-12.94"/><path d="M440.55,105.62c5,3.66-27.75,17.43-27.75,17.43a54.66,54.66,0,0,1-10.73,1,7.88,7.88,0,0,1-.8-2c-.19-1-.09-1.94-.26-2.9a6.68,6.68,0,0,0-3.27-4.4,14.71,14.71,0,0,0-5.35-1.74c-4.43-.71-12.16-.21-12.16-.21,9.84-7.26,30-8.21,39.36-8.8C421.39,107,439.83,105.1,440.55,105.62Z"/><path class="cls-47" d="M405.42,178.18a38.61,38.61,0,0,0,.22,4.93c.26,1.29,4.42.87,4.81.14s-.09-6.74-.09-6.74"/><path class="cls-8" d="M411.66,184.49c.11,1.36.1,3.94.1,3.94l-4.26,1-.54-.72a7.32,7.32,0,0,1-2.51,1.36,16.42,16.42,0,0,1-4,.39c-3.52-.23-5.95-1.33-6.07-1.85-.5-2.15,4.18-1.88,5.13-2a6.17,6.17,0,0,0,5.11-3.59c.39-1,.16-1.24.74-1.11a1.45,1.45,0,0,1,.91.64,2.54,2.54,0,0,0,2.7,1.15,3,3,0,0,0,1.61-.92A1.77,1.77,0,0,1,411.66,184.49Z"/><path d="M451.47,104.9a204.34,204.34,0,0,1-22.19.71c-2.83,0-24.26,4-26.31,7.65-3.38,6,2.2,40.89,1.68,65.89,0,0,2.57,2.14,7.11.12,1.13-12.28,8.39-41.24,3.38-54.77,11.82,1.57,21.35,3.13,32.09-.43,2.52-.83,4.4-2.61,5.53-5.86S453.3,107.82,451.47,104.9Z"/><path class="cls-2" d="M451.85,61.65,437.16,51.9s-1.87,4.22-7.91,4.15c-4.51-.06-5.62-3.37-5.62-3.37s-2.58.14-3.08.18a23.76,23.76,0,0,0-6.37,1.2c-2.92,1.09-5,3.8-7.36,5.93s-14.15,13.35-16.36,13.76-21.64-12.89-21.64-12.89l-4.74,4.74s21.08,19.48,27.36,19.51c2.78,0,17-7.33,23.56-11.24.25,1.38.55,2.92,1,4.91.7,3.24,1.06,4.49,1.86,7.9.86,3.65,1.63,14.41,1.84,19,0,0-.2,2.17,3.95,2.08s22.17-2.13,22.17-2.13l5.67-.71,1.76-19.53Z"/><path class="cls-38" d="M451.81,61.67,437.11,52l.15,0a7.58,7.58,0,0,1-2.85,3c-3.43,2-9.15,2-10.93-2.17l.15.1c-4,.3-8.4.23-11.74,2.72C406.75,60.07,402,65,396.74,69.44c-2,1.56-3.95,3.73-6.34,4.57-2.89-.57-5.39-2.55-7.93-3.93-4.69-2.86-9.28-5.88-13.82-9l.4,0-4.73,4.76v-.48c7.45,6.55,14.93,13.41,23.66,18.22,1.68.83,3.29,1.51,5.07.75a74.3,74.3,0,0,0,8.53-3.75c4.68-2.33,9.29-4.8,13.77-7.47.77,4,1.77,8.42,2.74,12.44a82.65,82.65,0,0,1,1.57,12c.21,2.68.4,5.36.53,8a1.32,1.32,0,0,0,.85,1.17c1.78.78,3.88.3,5.83.23,2.73-.21,5.46-.47,8.2-.73,4.77-.53,11.66-1.13,16.36-1.77l-.32.33L453,85.34c-.43-7.65-.76-15.79-1.15-23.67Zm.08-.05c.52,7.89,1.13,15.81,1.6,23.77l-1.66,19.54,0,.3c-4.8.71-11.77,1.41-16.66,2-2.73.3-5.47.58-8.21.82-2.51.16-7.36,1-7.76-2.35-.45-8-.86-16.09-3-23.83-.66-2.6-1.15-5.25-1.67-7.89l.71.32c-7.11,4-14.27,8-21.94,10.84-1.85.83-4.05,0-5.68-.83a49.61,49.61,0,0,1-6.4-4,202.9,202.9,0,0,1-17.36-14.42l-.26-.23.25-.24,4.75-4.74.19-.18.21.15c4.53,3.09,9.1,6.12,13.76,9a44.24,44.24,0,0,0,7.18,3.83c.63.21,1.13-.26,1.67-.56,6.07-4.43,11.46-9.77,17-14.85,1.92-2,4.08-3.92,6.84-4.53a39.66,39.66,0,0,1,8.19-1h.1l0,.11c2.39,5.2,11,3.83,13.3-.77l.05-.11.1.06,14.67,9.81Z"/><path class="cls-48" d="M391.49,81.37c-4.33.24-24.19-14.92-26.49-16.69l-.92.92s21.08,19.48,27.36,19.51c2.55,0,14.65-6.13,21.73-10.18L415,73.87l-1.1-6.55S396.09,81.11,391.49,81.37Z"/><path class="cls-49" d="M371.27,108.8h48.24l-8.65-28.2A3.7,3.7,0,0,0,407.32,78H365.07a2.4,2.4,0,0,0-2.3,3.11Z"/><path class="cls-23" d="M370.66,108.8h47.52l-8.65-28.2A3.71,3.71,0,0,0,406,78H363.74a2.4,2.4,0,0,0-2.3,3.11l8.28,27A1,1,0,0,0,370.66,108.8Z"/><g class="cls-11"><path class="cls-50" d="M444.85,66.27c-2.4,10.86-2.83,19.35-3.51,27.12-8.43,3.27-11.86,8.14-20.11,11.81,0,0-6.51-1.08-7.2,1.38-.39,1.41,7.63,2.54,7.63,2.54,7.64,0,27.81-5.55,29.17-5.92s5.34-26,5.5-39.92c0-2-.05-4.12-1.29-5.66a7.54,7.54,0,0,0-2.48-1.84c-5.38-2.75-9.37-3.5-15.4-3.88"/></g><path class="cls-46" d="M422.37,106.88c-.91-1.14-2.56-1.3-4-1.27a29.11,29.11,0,0,0-3.22.26c-.49.07-1.05.18-1.1.71s2.37,0,3.63.36a64,64,0,0,1-7.46.21,2.25,2.25,0,0,0-.86.08.72.72,0,0,0-.48.66.86.86,0,0,0,.34.56,5,5,0,0,0,2.57,1,19.84,19.84,0,0,0,11.34-1"/><path class="cls-2" d="M444.32,66.07c-.2,11.6-1,16.91-.79,28.52-5.83,1.24-13.9,7.84-22.14,11.51a4.37,4.37,0,0,0,.27,3c.63.23,27.82-6.39,30-8.38,1.94-1.79,4.52-23.55,4.68-37.46,0-2-.05-4.12-1.29-5.66a7.54,7.54,0,0,0-2.48-1.84c-5.38-2.75-9.37-3.5-15.4-3.88"/><path class="cls-38" d="M444.18,66.07c-.14,7.2-.71,14.39-.84,21.6,0,2.31,0,4.61,0,6.92l.14-.18a25.29,25.29,0,0,0-6.66,2.79c-2.67,1.47-5.25,3.09-7.87,4.64-1.38.81-2.77,1.61-4.18,2.36-.64.34-1.29.67-1.94,1l-1,.46c-.24.11-.55.18-.69.41a2.41,2.41,0,0,0-.15.89,4.35,4.35,0,0,0,.24,1.86c.17.44.24.57.64.54a17.17,17.17,0,0,0,2.25-.43c1.36-.29,2.7-.61,4-.93q5.34-1.28,10.63-2.7c3.24-.88,6.5-1.77,9.68-2.87a19.45,19.45,0,0,0,2.76-1.12,2.45,2.45,0,0,0,1.17-1.45,22.53,22.53,0,0,0,1-4c.4-2,.71-4,1-5.93.72-5.09,1.23-10.22,1.61-15.35q.29-3.84.42-7.69c.05-1.21.08-2.42.09-3.64a12.66,12.66,0,0,0-.47-4.2c-1-2.79-4.06-3.94-6.58-5a30.79,30.79,0,0,0-7.89-2c-1.49-.18-3-.29-4.49-.36-.17,0-.17.26,0,.28a47.94,47.94,0,0,1,8.43,1.27,31.61,31.61,0,0,1,3.81,1.29,25,25,0,0,1,4.12,2c2.65,1.73,2.58,4.79,2.53,7.63-.05,2.42-.16,4.84-.3,7.26q-.45,7.5-1.34,15A89.43,89.43,0,0,1,452.49,98a6.57,6.57,0,0,1-.93,2.51,4.38,4.38,0,0,1-1.73.92c-2.65,1-5.42,1.82-8.15,2.6-6.1,1.73-12.26,3.37-18.46,4.65l-1.06.21c-.11,0-.36.1-.47.05.14.06-.11-.57-.14-.7a3.92,3.92,0,0,1-.09-1,4.53,4.53,0,0,1,.08-.74.58.58,0,0,1,0-.19c.07-.1.05,0,.11,0a4.6,4.6,0,0,1,1-.45l1-.48c.71-.36,1.42-.73,2.12-1.12,4.93-2.7,9.55-6.11,14.72-8.35a17.65,17.65,0,0,1,3.1-1,.17.17,0,0,0,.13-.18c-.14-7.22.27-14.4.56-21.6.09-2.31.16-4.61.2-6.92a.15.15,0,0,0-.29,0Z"/><path class="cls-51" d="M395.19,93.87c.17,2.48-2.75,4.48-6.53,4.48s-7-2-7.15-4.48,2.75-4.48,6.52-4.48S395,91.4,395.19,93.87Z"/><ellipse class="cls-52" cx="388.35" cy="93.87" rx="2.49" ry="4.35" transform="translate(279.42 478.27) rotate(-87.77)"/><path class="cls-53" d="M427,33.26c-.09-.43-1.05-.51-2-.39s-3.55.44-4.08.86-.5.71-.78.74-.3-.26-.92-.53a8.16,8.16,0,0,0-3.07,0c-1,.12-1.88.34-1.87.78a2.51,2.51,0,0,0,.39,1.34c.2.12.2.1,1,1.85a1.85,1.85,0,0,0,2.33,1.26c1.59-.34,1.69-2.16,1.82-2.92s.23-.87.47-.9.41,0,.72.75.53,2.33,2.16,2.42c2.14.12,3.06-.61,3.36-2,.4-1.86.31-1.86.47-2a9.9,9.9,0,0,1,1.59.14l0-.56A11.78,11.78,0,0,1,427,33.26ZM419.21,37a1.85,1.85,0,0,1-1.57,2c-1,.12-1.43-.4-2-1.65a3.2,3.2,0,0,1-.31-2.26c.16-.3.69-.29,1.91-.37s1.62-.1,1.82.43A6.8,6.8,0,0,1,419.21,37Zm7-1c-.21,1.34-.7,2-2,2.15-1.9.23-2.27-.52-2.55-1.43a6.26,6.26,0,0,1-.35-1.87c.05-.56.45-.64,1.65-.87s2.8-.5,3-.25A3.24,3.24,0,0,1,426.18,36Z"/><path d="M439.87,30.3a23,23,0,0,0-.53-2.86,9.16,9.16,0,0,0-4.46-5.84,14.26,14.26,0,0,0-10.09-1c-1.84.52-2.53,1.49-3.48,1.46a10.3,10.3,0,0,1-2.58-.85c-7.21-2.59-6,4.47-5.24,6.41.34.86,2,1.49,2.2,1.84a22,22,0,0,1,.33,2.87,1.55,1.55,0,0,0,.9,1.07s0-2.28.08-2.58a2.84,2.84,0,0,1,1.06-2.13,6.65,6.65,0,0,1,2.6-.73,19.52,19.52,0,0,1,5.31.88c1.34,1.15,1.69,3.79,2.07,5.34.18.72.36,1.21.65,1.2.23-2.13,1-2.19,2.25-1.46.68.39,1.06,1.74,1.08,2.89A3,3,0,0,1,429.87,40c-.51.11,1,3,1.74,3.75a3.63,3.63,0,0,0,.75.66,3.37,3.37,0,0,0,.87.32l1,.28a2.66,2.66,0,0,0,1.42.12c.76-.21,1.16-1,1.5-1.73.57-1.17,1.22-2.3,1.68-3.52A21,21,0,0,0,439.87,30.3Z"/><path class="cls-22" d="M569.87,137.22H478.55l10.94-8.09V89.63a6,6,0,0,1,6-6h74.42a6,6,0,0,1,6,6v41.62A6,6,0,0,1,569.87,137.22Z"/><rect class="cls-54" x="526.17" y="91.37" width="41.73" height="3.99"/><rect class="cls-54" x="526.17" y="97.34" width="41.73" height="3.99"/><rect class="cls-54" x="526.17" y="103.3" width="41.73" height="3.99"/><rect class="cls-54" x="526.17" y="109.11" width="41.73" height="3.99"/><rect class="cls-54" x="526.17" y="116.07" width="29.1" height="3.99"/><rect class="cls-55" x="496.67" y="91.37" width="26.21" height="30.65" rx="3.39"/><rect class="cls-54" x="496.67" y="125.84" width="26.21" height="3.29"/><path class="cls-22" d="M230.63,82.06H347l-13.93-10.3V8.1A7.61,7.61,0,0,0,325.44.5H230.63A7.6,7.6,0,0,0,223,8.1V74.46A7.6,7.6,0,0,0,230.63,82.06Z"/><g class="cls-34"><rect class="cls-56" x="233.14" y="12.3" width="53.17" height="5.09" transform="translate(519.45 29.69) rotate(180)"/><rect class="cls-56" x="233.14" y="19.9" width="53.17" height="5.09" transform="translate(519.45 44.89) rotate(180)"/><rect class="cls-56" x="233.14" y="27.5" width="53.17" height="5.09" transform="translate(519.45 60.09) rotate(180)"/><rect class="cls-56" x="233.14" y="34.91" width="53.17" height="5.09" transform="translate(519.45 74.91) rotate(180)"/><rect class="cls-56" x="233.14" y="42.31" width="53.17" height="5.09" transform="translate(519.45 89.72) rotate(180)"/><rect class="cls-56" x="233.14" y="55.77" width="53.17" height="5.09" transform="translate(519.45 116.63) rotate(180)"/><rect class="cls-56" x="233.14" y="63.78" width="90.75" height="5.09" transform="translate(557.03 132.66) rotate(180)"/></g><rect class="cls-57" x="290.49" y="12.3" width="33.4" height="39.05" rx="4.31" transform="translate(614.37 63.66) rotate(180)"/><rect class="cls-58" x="290.49" y="56.22" width="33.4" height="4.19" transform="translate(614.37 116.63) rotate(180)"/><path class="cls-10" d="M303.94,46.88l-2.1,1.4a.58.58,0,0,1-.82-.18l-4.62-7.74,2.74-1.55,5,7.26A.58.58,0,0,1,303.94,46.88Z"/><path class="cls-10" d="M311.46,30.45l-.73.5-2.92-4.27.72-.49a2.45,2.45,0,0,1,3.33.86h0A2.43,2.43,0,0,1,311.46,30.45Z"/><polygon class="cls-2" points="314.13 35.65 300.67 37.7 297.6 33.22 304.39 21.45 314.13 35.65"/><polygon class="cls-10" points="313.27 35.84 300.67 37.7 299.45 35.91 310.05 31.14 313.27 35.84"/><path class="cls-2" d="M295.14,41h0a1.72,1.72,0,0,1-2.33-.6l-.55-.8a1.71,1.71,0,0,1,.28-2.38h0a1.71,1.71,0,0,1,2.33.61l.55.79A1.7,1.7,0,0,1,295.14,41Z"/><path class="cls-10" d="M294.87,37.78l.54.79a1.59,1.59,0,1,1-2.6,1.78l-.55-.8a1.74,1.74,0,0,1-.11-.18,1.68,1.68,0,0,0,2.19.43,1.66,1.66,0,0,0,.39-2.19A1.15,1.15,0,0,1,294.87,37.78Z"/><path class="cls-2" d="M314.57,36.09h0a1,1,0,0,1-1.37-.35L304,22.29a1,1,0,0,1,.16-1.4h0a1,1,0,0,1,1.37.35l9.23,13.46A1,1,0,0,1,314.57,36.09Z"/><path class="cls-26" d="M303.9,21.14l7.69,11.21a1,1,0,0,0,1.36.35.72.72,0,0,0,.24-.25l1.54,2.25a1,1,0,0,1-.16,1.39,1,1,0,0,1-1.37-.35L304,22.29A1.07,1.07,0,0,1,303.9,21.14Z"/><path class="cls-26" d="M299.48,40.05l-.87.59a3,3,0,0,1-4.15-1.07l-.87-1.26a3,3,0,0,1,.5-4.25l.87-.59a3.06,3.06,0,0,1,4.16,1.07L300,35.8A3,3,0,0,1,299.48,40.05Z"/><path class="cls-10" d="M299.94,35.73l1.29,1.89a1,1,0,0,1-.16,1.35L297,41.73a1,1,0,0,1-1.31-.34l-1.3-1.89a1,1,0,0,0,1.31.34l4.06-2.76A1,1,0,0,0,299.94,35.73Z"/><line class="cls-59" x1="313.15" y1="14.94" x2="310.45" y2="21.33"/><line class="cls-59" x1="318.81" y1="20.62" x2="313.26" y2="24.78"/><line class="cls-59" x1="322.39" y1="28.36" x2="315.49" y2="29.03"/><path class="cls-60" d="M472.2,404.05a12.81,12.81,0,0,1-5.34,4.05c-2.86,1.28-8.91,1.88-5.55,3s7.28.45,9.27.13a39.45,39.45,0,0,1,6.25-.38c3.09,0,3.12-.21,2.7-3.7C479,402.36,473.6,401.34,472.2,404.05Z"/><path class="cls-60" d="M528.18,402.31c-.17,1,1.2,3.9-1.25,6.05s-8,4.42-4.34,4.5a21.37,21.37,0,0,0,9.12-1.7c1.88-.93.38-2.39,2.72-3.12,3.07-1,2.43-3.23.84-4.63C533.22,398.81,528.73,399.19,528.18,402.31Z"/><path d="M516.41,304.72s7.36-21.65-13.53-39.48c0,0-11.2,4.46-20.16,5a49.85,49.85,0,0,1-10.64-.23s-.6,19.23-.62,29.6Z"/><path d="M469.76,340.67c-.4-9.67,10.09-8.4,14-1.17,8,14.95-3,49.38-4.4,65.7-1.5.58-4,1-5.53.34a3.8,3.8,0,0,1-1.61-1.78C472.41,383.75,470.2,351,469.76,340.67Z"/><path d="M483.36,342.14c-1.21,3.95-14.6,8.11-13.52-6.28.49-6.37,1.77-41.61,2-45s.81-8.36,2.45-9c8.21-3.1,22.73,7.63,20.57,20.38C493.44,310.79,485.86,334,483.36,342.14Z"/><path d="M504.44,347.63c-3.24-9.13,7.29-10.74,13.25-5.12,14,13.18,14.52,44.21,17.95,60.23a12.24,12.24,0,0,1-6.11,1.75,2.18,2.18,0,0,1-1.67-.85C522.18,384.44,507.91,357.4,504.44,347.63Z"/><path d="M518.26,344.66c.37,4.11-10.8,12.62-15.19-1.12-1.95-6.1-10.3-42.11-11.34-45.35s-.76-9.93.53-11.12c6.44-5.95,21-.72,23.77,11.91C517.9,307.43,517.51,336.12,518.26,344.66Z"/><path class="cls-61" d="M460.75,187c.38-.4.76-.8,1.11-1.24,2.64-3.38,3-6.38,5.48-10.31a28.59,28.59,0,0,1,1.78-3.41,14.18,14.18,0,0,1,4-3.26c1.15-.6.16,1.92.16,1.92s1-1.41,1.91-1.31c.37,0,.43,2.2.44,2.56a18,18,0,0,1-2,8.55,4.39,4.39,0,0,0-.68,1.95,4.43,4.43,0,0,0,2.31-1.14,2.74,2.74,0,0,1,2.41-.7,6,6,0,0,1-.46,1c-1.05,2-2.22,4.06-4.23,5-1.2.57-2.59.67-3.76,1.29-2.12,1.13-3.15,3.74-5.3,4.8"/><rect class="cls-62" x="468.85" y="170.24" width="9.15" height="16.84" rx="0.65" transform="translate(105.61 -168.85) rotate(22.7)"/><rect class="cls-63" x="469.81" y="171.24" width="7.67" height="15.03" transform="translate(105.66 -168.92) rotate(22.7)"/><path class="cls-64" d="M457.58,209.36s-3.47,7-4.51,7.44,2.52-1.45,4.48-3.47,4.62-7.31,4.62-7.31A40.45,40.45,0,0,0,457.58,209.36Z"/><path class="cls-61" d="M468.46,175.48a1.55,1.55,0,0,1,.49,1.1,8.58,8.58,0,0,1-.14,4.64,6.7,6.7,0,0,1-1.86,2.37,14.41,14.41,0,0,1-2.84,1.94"/><path class="cls-65" d="M480.26,163.85c-1.84.53-2.82,2.91-3.44,4.53a25.61,25.61,0,0,0-1.38,6.12,8.45,8.45,0,0,0,.3,4.3,9.44,9.44,0,0,0,1.2,1.87,4.18,4.18,0,0,0,.87.91,1.33,1.33,0,0,0,1.2.2c.57-.22.8-.89,1-1.48,1.06-3.86,2.22-7.77,4.4-11.13"/><path class="cls-61" d="M478.21,176.08c0-1.23-1.33-2-2.45-.76-.93,1.05-1.17,3.05-1.22,4.53-.07,1.77,1.3,2.12,2.43,2.37"/><path class="cls-2" d="M511.76,206.18c-2-4.44-20.09-5.53-26.73-5.74a29.35,29.35,0,0,0-4.94.25h0a50,50,0,0,0-10.23,1.73c-7.27,2.19-9.77,5.55-12.28,7C462.46,203.15,467.9,190,467.9,190s-6.56-5.39-7.32-4.11-28.29,33.5-27.43,38.72c.36,2.15,3.54,4.28,6.36,4.18,7.81-.27,16.88-3.11,26.39-6.22a6.44,6.44,0,0,1,2.17-.35c1.4,4.31,2.33,12.73,4.16,18,1.06,3.06.33,21.76.08,24.64s-2.13,2.78-1.39,5.52c.5,1.86,10.34,3.4,16.12,3.4,6.49,0,20.32-1,22.34-3.33.9-1.05-1-2.59-1-6.19s2.91-18.53,4-24.56C513.9,231.69,512.8,208.45,511.76,206.18Z"/><path class="cls-38" d="M511.72,206.2c-2.88-4.58-18.08-5.1-23.43-5.54a42.28,42.28,0,0,0-8.19.12l-.16,0,.06-.14s.09.12.09.12a43.81,43.81,0,0,0-12,2.35,25.81,25.81,0,0,0-5.45,2.75c-1.95,1.26-3.65,2.93-5.73,4.07a59,59,0,0,0,6.17-10.08c1.66-3.26,3.18-6.59,4.59-10l.07.28a31.51,31.51,0,0,0-6-4.05c-.43-.15-.91-.33-1,0-.61.82-1.23,1.55-1.85,2.32C450.6,199,441,209.74,434.49,221.4c-.86,1.74-1.66,3.4,0,5,2.85,3,7.18,2,10.81,1.45a96.85,96.85,0,0,0,11.36-2.75c2.7-.81,5.7-1.77,8.39-2.66a8.26,8.26,0,0,1,3.31-.6c1.86,6.33,2.43,12.77,4.46,19,.85,8,.32,16.06-.05,24.11a5.78,5.78,0,0,1-.81,2.46,2.87,2.87,0,0,0-.61,2.73c.05.36.37.46.76.71a26,26,0,0,0,6.78,1.76c6.31,1,12.7.67,19,.13a47.39,47.39,0,0,0,9.34-1.61,4.42,4.42,0,0,0,1.84-1c.27-.36-.14-1.21-.4-1.94-1.75-4.64.17-9.7.75-14.39.83-4.54,1.79-9.59,2.69-14.15a90.17,90.17,0,0,0,.8-14.32c-.16-6.36,0-12.86-1.25-19.11Zm.09,0c1.32,6.27,1.23,12.76,1.46,19.14a90.1,90.1,0,0,1-.65,14.41c-1.38,7.8-3.05,15.79-3.87,23.65a12,12,0,0,0,1.14,5.69,1.76,1.76,0,0,1-.08,1.48,2.77,2.77,0,0,1-1.08.88c-3.37,1.53-7.12,1.79-10.69,2.26-8.76.8-18,1.29-26.37-1.95a2.31,2.31,0,0,1-1.22-1.19,3.76,3.76,0,0,1,.06-2.54,7.5,7.5,0,0,0,1.3-3.15c.12-1.56.18-3.17.25-4.76.12-3.2.2-6.39.23-9.59a69.74,69.74,0,0,0-.36-9.49,86.17,86.17,0,0,1-2.23-9.33c-.63-3.13-1.12-6.31-2-9.32l.39.29c-1.6-.06-3.94,1-5.52,1.45q-2.81.89-5.62,1.73a99.62,99.62,0,0,1-11.47,2.73c-3.84.57-8.47,1.5-11.44-1.7-1.86-1.77-1.22-3.72-.14-5.75a54.82,54.82,0,0,1,3-5.07c6.32-9.44,14.39-19.06,21.56-27.91.61-.75,1.26-1.52,1.82-2.27,0,0,.18-.29.37-.35a1.11,1.11,0,0,1,.49-.06c2.71.78,4.84,2.84,7,4.49a131.47,131.47,0,0,1-7.41,14.95,46.4,46.4,0,0,1-3.08,4.58l-.2-.25c1.73-1,3.23-2.48,5-3.57a30.56,30.56,0,0,1,11.49-4.3,54.85,54.85,0,0,1,6.26-.76l-.05.14-.11-.12a41.15,41.15,0,0,1,8.23-.1c5.4.45,20.65,1,23.51,5.66Z"/><path class="cls-64" d="M507.31,225.83c.69,1.43,5.37,9,5.37,9l.19.89a37.1,37.1,0,0,1-.48,4c-1.13,6-4,20.95-4,24.56s1.85,5.08,1,6.19c-1.59,2.16-27.67,7-26.39,1,.12-.55,21.89-17.16,22-17.72,1-4.76,1.87-8.2,2.31-11.67C508.37,233.68,506.62,224.4,507.31,225.83Z"/><path class="cls-66" d="M479.79,192.13s-.06,7.56-.37,7.86a12.12,12.12,0,0,1-1.8,1s1.07,6.57,2.71,6.08,12.52-6,12.52-6-1.54-.62-1.54-1.23,1.46-12.5,1.46-12.5"/><path class="cls-66" d="M487.34,164.67c-1.59.43-5.76-.44-6.92,1.29s-2.16,5.91-2.59,7.06a72.2,72.2,0,0,0-2,7.11c-.82,3.08-2.16,8.72.85,11.3a4,4,0,0,0,2.33,1.18c1.43.26,2.85.55,4.27.81,2.22.39,4.67.86,6.86.14,2.94-.95,4.55-5,5.3-7.72l4.32-15.7Z"/><path d="M479.52,210s-.64,29.5-1.84,47.44l4.34,6,3-7.5a228,228,0,0,0-2.82-45.72Z"/><path class="cls-38" d="M479.55,210.07c-.29,15.14-.51,33-1.58,47.19l4.37,6-.69.09,2.93-7.51c.2-6.85.12-15.35-.32-22.74-.38-7.63-1.16-15.23-2.2-22.8l.11.09-2.62-.28Zm-.06-.08,2.7.13h.09a195.39,195.39,0,0,1,3.14,46l-3,7.47-.27.67-.42-.58-4.31-6c.83-15.31,1.64-32.24,2.1-47.69Z"/><path class="cls-67" d="M478.52,207.44l.1.41a8.3,8.3,0,0,0,.9,2.18h0l2.66.21s1.81-1,2.05-2-3-2.69-3-2.69l-.39.15a5.86,5.86,0,0,0-2.32,1.67Z"/><path class="cls-38" d="M478.57,207.45a9.06,9.06,0,0,0,1.11,2.48l-.15-.09q1.34,0,2.67.09l-.16,0c.67-.45,1.61-1,1.77-1.83-.57-.93-1.86-1.5-2.77-2.15l.39,0a8.12,8.12,0,0,0-2.86,1.44Zm-.1,0a5.22,5.22,0,0,1,2.79-2.36,7.22,7.22,0,0,1,3.18,2.37c.83,1.47-1.14,2.54-2.2,3.11l-2.84-.34a8.77,8.77,0,0,1-.93-2.78Z"/><path class="cls-2" d="M491.5,198a11.15,11.15,0,0,1,3,3.08c-1.37,3.13-4.46,8.69-7.87,11.22a15.36,15.36,0,0,0-5.4-6.75S490.54,203.93,491.5,198Z"/><path class="cls-38" d="M491.48,198a10.72,10.72,0,0,1,3.17,3.05c0,.06.05.05,0,.13-1.94,4.37-4.29,8.76-8.15,11.76a15.41,15.41,0,0,0-6.55-7.59c4.44-.92,10.07-2.49,11.52-7.35Zm0,.09c-.59,4.83-5.95,7.09-10.17,8l.19-.94a15.42,15.42,0,0,1,5.47,7.06l-.57-.17a21,21,0,0,0,4.55-5,43.48,43.48,0,0,0,3.42-6v.13a12.45,12.45,0,0,0-2.9-3.11Z"/><path class="cls-2" d="M481.26,205.58a11.45,11.45,0,0,0-5.29,5,25.38,25.38,0,0,1,.71-9.34s2.18-2.78,2.94-2.84A14.66,14.66,0,0,0,481.26,205.58Z"/><path class="cls-38" d="M481.31,205.6a11.88,11.88,0,0,0-5.49,5.87,25.73,25.73,0,0,1,.43-10.41c.95-1.12,1.85-2.68,3.33-3.13l.59-.1a16.72,16.72,0,0,0,1.14,7.77Zm-.1,0a12.09,12.09,0,0,1-2.09-7.18l.54.55a15.79,15.79,0,0,0-2.6,2.63l.07-.14a23.61,23.61,0,0,0-.91,9.16l-.48-.09a11.49,11.49,0,0,1,5.47-4.93Z"/><path class="cls-61" d="M481.68,271.44c-3.3.49-4.52,1.72-6.38,3.55a.67.67,0,0,0-.27.55c0,.27.35.38.61.42,1.53.25,1.78-.73,3.21-1.33,1-.4,1.93-.82,2.89-1.24"/><path class="cls-68" d="M470.48,247.41l11.69,37.45a1.35,1.35,0,0,1-1.24,1.88l-24.38,2.13a2.23,2.23,0,0,1-2-1.57l-12.57-36.88c-.31-1,1.14-2.44,2.12-2.45l24.38-2.13A2.24,2.24,0,0,1,470.48,247.41Z"/><path class="cls-24" d="M469.68,248.39l11.52,36.87a1.34,1.34,0,0,1-1.24,1.88l-24.37,2.14a2.27,2.27,0,0,1-2-1.58L442,250.83a1.35,1.35,0,0,1,1.24-1.88l24.38-2.14A2.27,2.27,0,0,1,469.68,248.39Z"/><polygon class="cls-2" points="450.21 247.19 451.07 250.42 462.47 249.42 461.54 246.2 450.21 247.19"/><path class="cls-2" d="M452.37,244.19c.23.75,1.14,3.65,1.14,3.65l5.44-.5-1.14-3.66a3.7,3.7,0,0,0-3.61-2.6A2.22,2.22,0,0,0,452.37,244.19Zm1.2-.08a1.25,1.25,0,0,1,1-1.74,2.09,2.09,0,0,1,2,1.46,1.25,1.25,0,0,1-1,1.74A2.08,2.08,0,0,1,453.57,244.11Z"/><path class="cls-66" d="M491,268.82c-2.56.53-9.38,2.57-10.09,2.91a29.58,29.58,0,0,0-4.35,3.21c-2.56,2.57-1.25,3.77-2.26,7.26a1.73,1.73,0,0,0-.07.55c0,.37.49.68,1,.34.27.45,1.06.17,1.44-.32,0,.35.49.57,1.27.14a6.5,6.5,0,0,0,1.33-1.09,10.45,10.45,0,0,1,2.77-1.69,20.07,20.07,0,0,0,2.71-1.23c1-.69,2.88-.85,3.79-3.8a2.88,2.88,0,0,1,1.42-1.42l4.17-2.62"/><path class="cls-2" d="M506.68,220.85c1.09,3.87,5.6,30.67,5.6,30.67l-25.41,18.4,2.11,5.56s30.4-10.21,32.8-17.19,2.28-38.5-6.16-49.56c-2.69-3.52-8.08-5.29-8.08-5.29"/><path class="cls-38" d="M506.73,220.84c2,8.61,4.12,21.84,5.74,30.64,0,.13.07.1-.08.2l-25.33,18.5.11-.37,2.13,5.55-.43-.21c6.81-2.54,31.11-10.9,32.64-17.79,2.41-11.84,1.07-35.8-4.74-46.4-1.79-3.71-5.47-6-9.24-7.48l0-.09c3.91,1.31,7.64,3.61,9.63,7.33,6.23,11.22,7.85,34.35,5.28,46.91-1.34,7.29-26.63,15.72-33.7,18.29l-.11-.32-2.1-5.56-.09-.24.21-.14,25.48-18.3-.08.19c-1.43-8.82-3.76-22.21-5.35-30.71Z"/><path class="cls-61" d="M480.62,278.47l-1.06.87c-1.09.86-1.73,2.1-2.76,3a9.86,9.86,0,0,1,3.82-3.89Z"/><path class="cls-61" d="M479.22,276.79c-1.81,1.51-2.38,3.92-3.76,5.75,1-2,1.77-4.44,3.76-5.75Z"/><path class="cls-61" d="M477.61,275.43a14.69,14.69,0,0,1-1.05,1.31,18.14,18.14,0,0,0-1.9,4.61,8.9,8.9,0,0,1,2.95-5.92Z"/><path d="M497,183.11c-1-.58-1.76-1.19-2.41-.24-.34.51-.55,1.21-1.13,1.38a1.18,1.18,0,0,1-1.34-.94,3.5,3.5,0,0,1,.22-1.8l1.2-3.86a5.83,5.83,0,0,0,.28-3.87,4.28,4.28,0,0,0-1.22-1.56,12.92,12.92,0,0,0-5.93-2.53,65,65,0,0,1-6.38-1.31,7.06,7.06,0,0,1-2.43-1.23,5.26,5.26,0,0,1-1.72-3.93,8.07,8.07,0,0,1,1.25-4.19,7,7,0,0,0,.63,1.46,5.44,5.44,0,0,1,1.16-1.82c.63,3.45,15.19,2.3,18.59,3.82,2.35,1.06,4.3,1.75,4.23,5.57a1.44,1.44,0,0,0,.46.61c2.09,1.92,3,4.25,3.26,7.72.32,4.24-2.15,8.83-4.57,12.33a8,8,0,0,1-1.8,2.15,4.75,4.75,0,0,1-3.38.77c-1.05-.21-3.12-.12-3.14-1.18,0-.77,1.62-2.13,2.07-2.75"/><path class="cls-66" d="M493.21,187.12a1.34,1.34,0,0,0,2,1.52,4.63,4.63,0,0,0,2.9-3.57c.34-1.83-.64-3.67-2.32-3.19a2.48,2.48,0,0,0-1.59,2.41"/><path class="cls-61" d="M479.79,192.77l4.67.86a6.48,6.48,0,0,1-4.73,1.75"/><g class="cls-69"><polyline class="cls-70" points="113.11 112.7 119.37 115.85 116.24 108.17"/><path class="cls-70" d="M93.7,102.88c0,6.89,5.92,12.48,13.23,12.48s13.22-5.59,13.22-12.48S114.23,90.4,106.93,90.4,93.7,96,93.7,102.88Z"/><path class="cls-71" d="M103.69,98.78v8.92a.93.93,0,0,0,1.4.81l7.73-4.46a.94.94,0,0,0,0-1.62L105.09,98A.93.93,0,0,0,103.69,98.78Z"/></g><g class="cls-69"><polyline class="cls-70" points="545.94 207.59 539.69 210.74 542.82 203.07"/><path class="cls-70" d="M565.36,197.78c0,6.89-5.92,12.48-13.23,12.48s-13.22-5.59-13.22-12.48,5.92-12.48,13.22-12.48S565.36,190.89,565.36,197.78Z"/></g><g class="cls-69"><polyline class="cls-70" points="345.79 99.28 350.36 94.35 344.1 95.58"/><path class="cls-70" d="M328.88,100.43a9.61,9.61,0,1,0,9.59-9.05A9.33,9.33,0,0,0,328.88,100.43Z"/><path class="cls-71" d="M336.63,104.76c1.89,0,3.8.06,5.54-.06.55,0,1-1,.36-1.24a1.29,1.29,0,0,0,.69-.63.63.63,0,0,0-.34-.81c.66.17.91-.92.4-1.27a1.64,1.64,0,0,0,.56-.92,1,1,0,0,0-.4-1,1.44,1.44,0,0,0-.68-.12l-2.36,0a5.9,5.9,0,0,0-.35-3.81c-.19-.34-.69-.75-1.09-.48s-.27.85-.25,1.23a4.4,4.4,0,0,1-2.15,4S336.65,103,336.63,104.76Z"/><rect class="cls-71" x="333.1" y="99.63" width="2.85" height="5.13"/></g><g class="cls-69"><path class="cls-70" d="M390.44,33.13a14.06,14.06,0,1,0-3.21,3L392.71,39Z"/><path class="cls-2" d="M373.42,20.45a3.45,3.45,0,0,1,4.89.05l.88.9.9-.89a3.45,3.45,0,1,1,4.85,4.92l-3.36,3.31,0,0a3.45,3.45,0,0,1-4.89-.05l-3.3-3.38A3.45,3.45,0,0,1,373.42,20.45Z"/></g></g></g></g></svg>