<svg xmlns="http://www.w3.org/2000/svg" viewBox="0 0 359.75 359.42"><g id="Layer_2" data-name="Layer 2"><g id="Layer_1-2" data-name="Layer 1"><path id="towers" d="M102.26,227.47h12v-4.16q0-41.53,0-83.08c0-6.62,1.78-8.4,8.42-8.4q15.92,0,31.81,0c5.62,0,7.66,2,7.66,7.67q0,41.55,0,83.08v4.76h12V98.45c0-6.83,1.74-8.54,8.67-8.54,10.72,0,21.45,0,32.18,0,4.71,0,7,2.2,7,6.78q.06,49.59,0,99.17a15,15,0,0,1-.18,1.62H210.22V102.13h-24V239.32H30.65V227.76h23.7v-4.2q0-21,0-41.91c0-5.91,2-7.89,7.8-7.9q16.1,0,32.18,0c5.9,0,7.91,2,7.91,7.8q0,20.76,0,41.54Zm47.64,0V144.11H126.41v83.36Zm-83.26-41.6v41.55H90V185.87Z"/><path d="M246,185.54H234.09V71.94H32.32c-12.65,0-19.87,7.28-19.88,20,0,7.11,0,14.21,0,21.61H0c.5-10.47-.12-21.18,1.79-31.42C4.35,68.47,16.93,60,31.69,60q86.45,0,172.88,0h29.25V48c-3.57,0-7.13-.05-10.69,0-3,.06-5.4-.9-6.62-3.84s-.07-5.06,1.93-7.06q17.34-17.33,34.68-34.64c3.34-3.31,6.38-3.28,9.77.09q17.39,17.28,34.67,34.65c2,2,3,4.3,1.77,7.1S295.88,48,293,48c-3.58,0-7.16,0-10.91,0V59.75c1.07.07,2.14.2,3.21.2,6.37,0,12.73,0,19.09,0,18.68.05,31.39,12.79,31.41,31.57q0,53.13,0,106.27v11.68h-12v-4.32c0-32.18-.49-64.37.13-96.53.66-34.32-2.67-37.94-37-36.71-1.49.06-3,0-4.87,0V179.49H269.93V44.81c0-7,1.47-8.52,7.54-8.88C271,29.5,264.18,22.64,257.59,16.05L237.86,35.81c.49,0,1.51.1,2.52.24a5.93,5.93,0,0,1,5.55,5.6,18.52,18.52,0,0,1,0,2.24V185.54Z"/><path d="M12.7,263.44c0,3.51-.4,6.43.07,9.2,1.53,9,8.87,14.85,18.35,14.86q49.77.06,99.53,0h55.2v11.89H142.68l-14.33,47.71h79.51l-6.47-21.86,11.33-3.54c2.6,8.53,5.15,16.91,7.78,25.56h13.24v11.89H102.57V347.4c3.45,0,7,.13,10.57-.08,1.08-.06,2.81-.85,3.06-1.67,4.7-15.2,9.22-30.46,13.92-46.15H32.56c-19.49,0-32.09-12.57-32.1-32q0-68.67,0-137.33v-4H12.33V251.56h167.6v11.88Z"/><path d="M294.08,11.92V.39c18.25-1.43,36,16.22,35.57,35.37H318c-.47-6.3-2.56-12-7.13-16.61S300.58,12.38,294.08,11.92Z"/><path d="M42.2,84.17V95.71H30.68V84.17Z"/><path d="M54.51,95.62V84.12H66v11.5Z"/><path d="M78.51,84.08H90V95.66H78.51Z"/><g id="Lens"><path d="M300.54,325.66c-37.44,20.72-77.37,6-96.05-21.58a72,72,0,0,1,99.38-100.41C332,222.51,346.8,262.73,326,300.27l22.66,22.61c2,2,4.12,4,6.06,6.1,6.77,7.36,6.7,18-.1,25a17.64,17.64,0,0,1-25.21.31c-9.26-8.9-18.22-18.11-27.32-27.17C301.65,326.67,301.18,326.26,300.54,325.66Zm-36.36-122a59.92,59.92,0,0,0-60.11,60.2c0,32.77,27,59.52,60,59.56,32.78,0,59.82-27.05,59.75-59.84C323.75,230.59,297,203.66,264.18,203.69Zm46.35,115c8.94,8.93,17.79,17.84,26.73,26.66,2.88,2.84,6.51,2.83,8.93.29s2.24-5.86-.44-8.67c-3.34-3.52-6.84-6.89-10.27-10.32L319,310.11Z"/><path d="M311.84,263.54a47.9,47.9,0,1,1-47.46-47.87C290.42,215.77,311.89,237.44,311.84,263.54ZM264,299.49A35.93,35.93,0,1,0,228,263.59,36,36,0,0,0,264,299.49Z"/><path d="M263.73,251.39c-6.9,1-11,4.88-11.93,12H240.37c-1.22-10.79,9.47-24,23.36-23.57Z"/></g></g></g></svg>