<svg xmlns="http://www.w3.org/2000/svg" xmlns:xlink="http://www.w3.org/1999/xlink" viewBox="0 0 442.92 418.17"><defs><style>.cls-1{fill:url(#New_Gradient_Swatch_copy_17);}.cls-2{fill:#c9febf;}.cls-3{fill:url(#New_Gradient_Swatch_copy_17-2);}.cls-4{fill:#f7c2a6;}.cls-15,.cls-5{opacity:0.15;}.cls-6{fill:#292626;}.cls-7{fill:url(#New_Gradient_Swatch_copy_14);}.cls-8{fill:url(#New_Gradient_Swatch_copy_14-2);}.cls-9{fill:url(#New_Gradient_Swatch_copy_16);}.cls-10{fill:url(#New_Gradient_Swatch_copy_16-2);}.cls-11{fill:url(#New_Gradient_Swatch_copy_14-3);}.cls-12{fill:url(#linear-gradient);}.cls-13{fill:url(#linear-gradient-2);}.cls-14{fill:url(#linear-gradient-3);}.cls-16{fill:url(#New_Gradient_Swatch_copy_11);}.cls-17{fill:url(#New_Gradient_Swatch_copy_11-2);}.cls-18{fill:url(#linear-gradient-4);}.cls-19{fill:url(#New_Gradient_Swatch_copy_11-3);}.cls-20{fill:url(#New_Gradient_Swatch_copy_12);}.cls-21{fill:url(#New_Gradient_Swatch_copy_12-2);}.cls-22{fill:url(#New_Gradient_Swatch_copy_12-3);}.cls-23{fill:url(#New_Gradient_Swatch_copy_12-4);}.cls-24{fill:url(#New_Gradient_Swatch_copy_12-5);}.cls-25{fill:url(#New_Gradient_Swatch_copy_12-6);}.cls-26{fill:url(#New_Gradient_Swatch_copy_12-7);}.cls-27{fill:url(#New_Gradient_Swatch_copy_12-8);}.cls-28{fill:url(#New_Gradient_Swatch_copy_12-9);}.cls-29{fill:url(#New_Gradient_Swatch_copy_12-10);}.cls-30{fill:url(#New_Gradient_Swatch_copy_14-4);}.cls-31{fill:url(#New_Gradient_Swatch_copy_3);}.cls-32{fill:url(#New_Gradient_Swatch_copy_14-5);}.cls-33{fill:#cacbcd;}.cls-34,.cls-35,.cls-36,.cls-37,.cls-38,.cls-39,.cls-40,.cls-41,.cls-42,.cls-43,.cls-44,.cls-45{fill-rule:evenodd;}.cls-34{fill:url(#New_Gradient_Swatch_copy_14-6);}.cls-35{fill:#a2aeb1;}.cls-36{fill:url(#New_Gradient_Swatch_copy_3-2);}.cls-37{fill:#05090b;opacity:0.1;}.cls-38{fill:url(#New_Gradient_Swatch_copy_12-11);}.cls-39{fill:url(#New_Gradient_Swatch_copy_14-7);}.cls-40{fill:url(#New_Gradient_Swatch_copy_3-3);}.cls-41{fill:url(#New_Gradient_Swatch_copy_12-12);}.cls-42{fill:url(#New_Gradient_Swatch_copy_15);}.cls-43{fill:url(#New_Gradient_Swatch_copy_14-8);}.cls-44{fill:url(#New_Gradient_Swatch_copy_12-13);}.cls-45{fill:url(#New_Gradient_Swatch_copy_3-4);}.cls-46{fill:url(#New_Gradient_Swatch_copy_11-4);}.cls-47{fill:url(#New_Gradient_Swatch_copy_11-5);}.cls-48{fill:#fff;}.cls-49{fill:url(#New_Gradient_Swatch_copy_2);}.cls-50{fill:url(#New_Gradient_Swatch_copy_2-2);}.cls-51{fill:url(#New_Gradient_Swatch_copy_3-5);}.cls-52{fill:url(#New_Gradient_Swatch_copy_3-6);}.cls-53{fill:url(#linear-gradient-5);}.cls-54{fill:url(#linear-gradient-6);}.cls-55{fill:url(#New_Gradient_Swatch_copy_2-3);}.cls-56{fill:url(#linear-gradient-7);}.cls-57{fill:url(#New_Gradient_Swatch_copy_2-4);}</style><linearGradient id="New_Gradient_Swatch_copy_17" x1="264.8" y1="121.5" x2="332.41" y2="192.33" gradientUnits="userSpaceOnUse"><stop offset="0" stop-color="#c4febd"/><stop offset="1" stop-color="#c7febf"/></linearGradient><linearGradient id="New_Gradient_Swatch_copy_17-2" x1="215.56" y1="58.52" x2="386.2" y2="275.3" xlink:href="#New_Gradient_Swatch_copy_17"/><linearGradient id="New_Gradient_Swatch_copy_14" x1="75.15" y1="272.56" x2="80.48" y2="272.56" gradientUnits="userSpaceOnUse"><stop offset="0" stop-color="#48434e"/><stop offset="0.44" stop-color="#32333e"/><stop offset="1" stop-color="#1a212c"/></linearGradient><linearGradient id="New_Gradient_Swatch_copy_14-2" x1="70.77" y1="265.62" x2="79.17" y2="265.62" gradientTransform="translate(73.94 -10.35) rotate(15.54)" xlink:href="#New_Gradient_Swatch_copy_14"/><linearGradient id="New_Gradient_Swatch_copy_16" x1="76.95" y1="261.41" x2="93.21" y2="261.41" gradientUnits="userSpaceOnUse"><stop offset="0" stop-color="#c4febd"/><stop offset="0.56" stop-color="#e3daaf"/><stop offset="1" stop-color="#f7c2a6"/></linearGradient><linearGradient id="New_Gradient_Swatch_copy_16-2" x1="86.68" y1="261.31" x2="94.67" y2="261.31" xlink:href="#New_Gradient_Swatch_copy_16"/><linearGradient id="New_Gradient_Swatch_copy_14-3" x1="86.9" y1="261.61" x2="91.16" y2="261.61" xlink:href="#New_Gradient_Swatch_copy_14"/><linearGradient id="linear-gradient" x1="104.01" y1="314.53" x2="30.6" y2="271.96" gradientUnits="userSpaceOnUse"><stop offset="0" stop-color="#d1def9"/><stop offset="0.33" stop-color="#a5b0e8"/><stop offset="1" stop-color="#4148c1"/></linearGradient><linearGradient id="linear-gradient-2" x1="96.39" y1="396.03" x2="19.89" y2="329.4" gradientUnits="userSpaceOnUse"><stop offset="0" stop-color="#48434e"/><stop offset="0.17" stop-color="#373641"/><stop offset="0.4" stop-color="#272a35"/><stop offset="0.66" stop-color="#1d232e"/><stop offset="1" stop-color="#1a212c"/></linearGradient><linearGradient id="linear-gradient-3" x1="62.01" y1="384.72" x2="0.93" y2="341.54" gradientUnits="userSpaceOnUse"><stop offset="0" stop-color="#48434e"/><stop offset="0.1" stop-color="#403d48"/><stop offset="0.41" stop-color="#2b2e39"/><stop offset="0.71" stop-color="#1e242f"/><stop offset="1" stop-color="#1a212c"/></linearGradient><linearGradient id="New_Gradient_Swatch_copy_11" x1="85.61" y1="319.31" x2="4.17" y2="286" gradientUnits="userSpaceOnUse"><stop offset="0" stop-color="#d1def9"/><stop offset="0.4" stop-color="#939de1"/><stop offset="0.8" stop-color="#5860ca"/><stop offset="1" stop-color="#4148c1"/></linearGradient><linearGradient id="New_Gradient_Swatch_copy_11-2" x1="551.37" y1="-1750.38" x2="624.16" y2="-1847.24" gradientTransform="translate(253.27 2167.77) rotate(-24.74)" xlink:href="#New_Gradient_Swatch_copy_11"/><linearGradient id="linear-gradient-4" x1="77.46" y1="-531.81" x2="304.7" y2="-42.97" gradientTransform="matrix(1, 0, 0, -1, 0, -32.01)" gradientUnits="userSpaceOnUse"><stop offset="0" stop-color="#48434e"/><stop offset="0.04" stop-color="#3f3d48"/><stop offset="0.15" stop-color="#2e303b"/><stop offset="0.29" stop-color="#232732"/><stop offset="0.47" stop-color="#1c222d"/><stop offset="1" stop-color="#1a212c"/></linearGradient><linearGradient id="New_Gradient_Swatch_copy_11-3" x1="105.08" y1="50.66" x2="305.77" y2="446.57" xlink:href="#New_Gradient_Swatch_copy_11"/><linearGradient id="New_Gradient_Swatch_copy_12" x1="124.54" y1="378.61" x2="274.83" y2="378.61" gradientUnits="userSpaceOnUse"><stop offset="0" stop-color="#fff"/><stop offset="0.65" stop-color="#c9daf0"/><stop offset="1" stop-color="#b1cae9"/></linearGradient><linearGradient id="New_Gradient_Swatch_copy_12-2" x1="124.77" y1="304.52" x2="192.69" y2="304.52" xlink:href="#New_Gradient_Swatch_copy_12"/><linearGradient id="New_Gradient_Swatch_copy_12-3" x1="124.77" y1="317.49" x2="261.13" y2="317.49" xlink:href="#New_Gradient_Swatch_copy_12"/><linearGradient id="New_Gradient_Swatch_copy_12-4" x1="149.03" y1="334.87" x2="200.73" y2="334.87" xlink:href="#New_Gradient_Swatch_copy_12"/><linearGradient id="New_Gradient_Swatch_copy_12-5" x1="149.03" y1="344.58" x2="266.6" y2="344.58" xlink:href="#New_Gradient_Swatch_copy_12"/><linearGradient id="New_Gradient_Swatch_copy_12-6" x1="124.77" y1="338.04" x2="143.81" y2="338.04" xlink:href="#New_Gradient_Swatch_copy_12"/><linearGradient id="New_Gradient_Swatch_copy_12-7" x1="149.03" y1="106.61" x2="200.73" y2="106.61" xlink:href="#New_Gradient_Swatch_copy_12"/><linearGradient id="New_Gradient_Swatch_copy_12-8" x1="149.03" y1="116.32" x2="266.6" y2="116.32" xlink:href="#New_Gradient_Swatch_copy_12"/><linearGradient id="New_Gradient_Swatch_copy_12-9" x1="124.77" y1="109.78" x2="143.81" y2="109.78" xlink:href="#New_Gradient_Swatch_copy_12"/><linearGradient id="New_Gradient_Swatch_copy_12-10" x1="124.54" y1="209.99" x2="274.83" y2="209.99" xlink:href="#New_Gradient_Swatch_copy_12"/><linearGradient id="New_Gradient_Swatch_copy_14-4" x1="250.69" y1="278.56" x2="266.6" y2="278.56" xlink:href="#New_Gradient_Swatch_copy_14"/><linearGradient id="New_Gradient_Swatch_copy_3" x1="129.71" y1="278.47" x2="146.71" y2="278.47" gradientUnits="userSpaceOnUse"><stop offset="0" stop-color="#f7c2a6"/><stop offset="1" stop-color="#f7c2a6"/></linearGradient><linearGradient id="New_Gradient_Swatch_copy_14-5" x1="151.12" y1="278.66" x2="166.34" y2="278.66" xlink:href="#New_Gradient_Swatch_copy_14"/><linearGradient id="New_Gradient_Swatch_copy_14-6" x1="183.17" y1="232.05" x2="247.79" y2="232.05" xlink:href="#New_Gradient_Swatch_copy_14"/><linearGradient id="New_Gradient_Swatch_copy_3-2" x1="141.37" y1="215.17" x2="196.42" y2="215.17" xlink:href="#New_Gradient_Swatch_copy_3"/><linearGradient id="New_Gradient_Swatch_copy_12-11" x1="142.35" y1="199.67" x2="216.87" y2="199.67" xlink:href="#New_Gradient_Swatch_copy_12"/><linearGradient id="New_Gradient_Swatch_copy_14-7" x1="162.03" y1="184.7" x2="216.93" y2="184.7" xlink:href="#New_Gradient_Swatch_copy_14"/><linearGradient id="New_Gradient_Swatch_copy_3-3" x1="171.08" y1="129.68" x2="301.24" y2="129.68" xlink:href="#New_Gradient_Swatch_copy_3"/><linearGradient id="New_Gradient_Swatch_copy_12-12" x1="190.94" y1="99.66" x2="306.8" y2="99.66" xlink:href="#New_Gradient_Swatch_copy_12"/><linearGradient id="New_Gradient_Swatch_copy_15" x1="197.73" y1="98.79" x2="301.24" y2="98.79" gradientUnits="userSpaceOnUse"><stop offset="0" stop-color="#7b85ae"/><stop offset="0.09" stop-color="#757da4"/><stop offset="0.71" stop-color="#4c4e67"/><stop offset="1" stop-color="#3c3b4f"/></linearGradient><linearGradient id="New_Gradient_Swatch_copy_14-8" x1="198.15" y1="103.2" x2="294.61" y2="103.2" xlink:href="#New_Gradient_Swatch_copy_14"/><linearGradient id="New_Gradient_Swatch_copy_12-13" x1="228.33" y1="106.73" x2="258.4" y2="106.73" xlink:href="#New_Gradient_Swatch_copy_12"/><linearGradient id="New_Gradient_Swatch_copy_3-4" x1="239.8" y1="99.22" x2="258.53" y2="99.22" xlink:href="#New_Gradient_Swatch_copy_3"/><linearGradient id="New_Gradient_Swatch_copy_11-4" x1="501.27" y1="236.66" x2="349.4" y2="428.67" xlink:href="#New_Gradient_Swatch_copy_11"/><linearGradient id="New_Gradient_Swatch_copy_11-5" x1="302.36" y1="434.54" x2="440.87" y2="337.85" xlink:href="#New_Gradient_Swatch_copy_11"/><linearGradient id="New_Gradient_Swatch_copy_2" x1="421.11" y1="280.06" x2="264.31" y2="415.16" gradientTransform="translate(624.68 747.57) rotate(-180)" gradientUnits="userSpaceOnUse"><stop offset="0" stop-color="#c4febd"/><stop offset="0.01" stop-color="#c1febd"/><stop offset="0.5" stop-color="#5feeb6"/><stop offset="0.84" stop-color="#21e5b2"/><stop offset="1" stop-color="#09e1b0"/></linearGradient><linearGradient id="New_Gradient_Swatch_copy_2-2" x1="267.49" y1="376.63" x2="350.57" y2="376.63" gradientTransform="translate(618.07 753.25) rotate(-180)" xlink:href="#New_Gradient_Swatch_copy_2"/><linearGradient id="New_Gradient_Swatch_copy_3-5" x1="446.95" y1="186.54" x2="267.87" y2="352.05" xlink:href="#New_Gradient_Swatch_copy_3"/><linearGradient id="New_Gradient_Swatch_copy_3-6" x1="290.13" y1="293.3" x2="373.21" y2="293.3" xlink:href="#New_Gradient_Swatch_copy_3"/><linearGradient id="linear-gradient-5" x1="7.31" y1="-20.32" x2="95.61" y2="51.82" gradientUnits="userSpaceOnUse"><stop offset="0" stop-color="#d1def9"/><stop offset="0.07" stop-color="#c3cff3"/><stop offset="0.39" stop-color="#8b95de"/><stop offset="0.66" stop-color="#636bce"/><stop offset="0.87" stop-color="#4a52c5"/><stop offset="1" stop-color="#4148c1"/></linearGradient><linearGradient id="linear-gradient-6" x1="51.52" y1="-0.03" x2="115.49" y2="52.22" xlink:href="#linear-gradient-5"/><linearGradient id="New_Gradient_Swatch_copy_2-3" x1="109.48" y1="357.28" x2="114.32" y2="406.98" gradientTransform="matrix(1, 0, 0, 1, 0, 0)" xlink:href="#New_Gradient_Swatch_copy_2"/><linearGradient id="linear-gradient-7" x1="138.02" y1="371.78" x2="118.66" y2="420.19" gradientUnits="userSpaceOnUse"><stop offset="0" stop-color="#c4febd"/><stop offset="0.67" stop-color="#43eab4"/><stop offset="1" stop-color="#09e1b0"/></linearGradient><linearGradient id="New_Gradient_Swatch_copy_2-4" x1="90.05" y1="389.29" x2="109.74" y2="413.49" gradientTransform="matrix(1, 0, 0, 1, 0, 0)" xlink:href="#New_Gradient_Swatch_copy_2"/></defs><g id="Layer_2" data-name="Layer 2"><g id="OBJECTS"><path class="cls-1" d="M290.77,229.05c.52,1.27.85,2,.89,2.07.13-.7.26-1.4.4-2.07,5.84-29.93,13.65-33.06,37.07-59.24,24-26.78,10.18-51.73,10.18-51.73C259.06,141.27,285.32,215.67,290.77,229.05Z"/><path class="cls-2" d="M290.77,229.05c.52,1.27.85,2,.89,2.07.13-.7.26-1.4.4-2.07-2.6-25.88,13-56.24,17.91-61.69,5.08-5.64,8.21-13.4,9.39-16.32.2-.49.38-.95.44-1.06l-1.13-.64c-.1.18-.23.5-.52,1.21C317,153.42,313.93,161,309,166.49,302.79,173.4,288.39,203.91,290.77,229.05Z"/><path class="cls-3" d="M283.17,221.26c-8.74,19.07-13.65,37.1-7.22,45.15a10.34,10.34,0,0,0,1.25,1.31c4.95,4.37,14.7,4.46,31.15-2,43.79-17.3,45.87-47.15,54.73-76.3,8.73-28.79,39.23-23.93,40-23.8C332,140.84,298,188.94,283.17,221.26Z"/><path class="cls-2" d="M276,266.41a10.34,10.34,0,0,0,1.25,1.31c8.22-5,24-15.46,31.4-27.25A177.37,177.37,0,0,0,318.17,222c5.89-12.52,12-25.47,22.65-35.4l-1.19-1.28c-10.9,10.16-17.07,23.27-23,35.94a169.81,169.81,0,0,1-9.48,18.26C299.88,251,284,261.59,276,266.41Z"/><polygon class="cls-4" points="42.89 280.59 49.74 280.59 52.02 264.58 41.87 264.58 42.89 280.59"/><path class="cls-4" d="M56.42,264.1c0,.08,0,.16,0,.23-.14,1.78-.2,3.83-1.41,5.19a5.77,5.77,0,0,1-3.56,1.73,9.32,9.32,0,0,1-8.31-3.74A14.73,14.73,0,0,1,40.49,259c-.1-2.53.25-5.25,2-7.19,2.88-3.17,9.18-3.63,12.11-.36,1.37,1.52,1.68,3.31,1.89,5.33A43.65,43.65,0,0,1,56.42,264.1Z"/><path class="cls-5" d="M49.76,271.28a6.92,6.92,0,0,1-3.88-1.14,7.92,7.92,0,0,1-2.76-3,15,15,0,0,0,3,2.57A11.48,11.48,0,0,0,49.76,271.28Z"/><path class="cls-6" d="M55.18,246a4.41,4.41,0,0,0-2.67,1.13,9.65,9.65,0,0,1-2.45,1.62c-1.41.51-3,.12-4.46-.1a9.48,9.48,0,0,0-3.9.11c-1.26.36-2.18,1.92-2.74,3.1-.35.75-4.06-1.18-3.17,5.87.19,1.44,2.6,5.33,3.16,5.93s2.43,2.56,3.24,2.42c1.37-.23,1.13-3.28,1.45-4.63s.4-2.82,1.23-3.92a4.83,4.83,0,0,1,3.37-1.68,22.54,22.54,0,0,1,3.85.14,8.46,8.46,0,0,0,3.81-.38C58,254.75,56.19,246,55.18,246Z"/><path class="cls-4" d="M41.87,261.54a2.21,2.21,0,0,1,0-2,1.71,1.71,0,0,1,2.85-.13,3,3,0,0,1,.43,1.73A3.29,3.29,0,0,1,45,262.4a1.29,1.29,0,0,1-1.81.81A3.61,3.61,0,0,1,41.87,261.54Z"/><path class="cls-4" d="M47.79,274.94l19.14,19.19-4.68.79,12.59-21.06,3.26,1.75L67.53,297.75a2.89,2.89,0,0,1-3.85,1.37,3.21,3.21,0,0,1-.61-.4l-.21-.18L42.19,281Z"/><path class="cls-4" d="M74.66,274.29a6.21,6.21,0,0,1,2.07-3.12c.36,1.15.74,2.24,1.1,3.39.18.59.34,1.31-.08,1.76a1.23,1.23,0,0,1-1.46.12A3.82,3.82,0,0,1,74.66,274.29Z"/><path class="cls-7" d="M78.86,268.05l-1.85.51-1.86.52c.81.16,1.21,1.65,1.41,2.81a35.06,35.06,0,0,0,.79,3.66l.08.3A1.6,1.6,0,0,0,79.2,277a1.55,1.55,0,0,0,1.23-1.93l-.11-.38a36.17,36.17,0,0,0-1.21-3.55C78.68,270.08,78.26,268.6,78.86,268.05Z"/><path class="cls-8" d="M72.32,261.56h5.86a0,0,0,0,1,0,0v8.28a0,0,0,0,1,0,0H72.32a.72.72,0,0,1-.72-.72v-6.84A.72.72,0,0,1,72.32,261.56Z" transform="translate(-68.46 29.79) rotate(-15.54)"/><path class="cls-9" d="M77,260.83s8.2-4.27,10.52-9.73l5.74,20.61s-8.61-4.41-14-2.9Z"/><path class="cls-10" d="M93.46,260.54c1.58,5.69,1.62,10.65.08,11.08s-4.06-3.84-5.65-9.53-1.62-10.65-.08-11.08S91.88,254.85,93.46,260.54Z"/><path class="cls-11" d="M89.22,264.09l-.89.25-1.43-5.12.89-.25a2.67,2.67,0,0,1,3.28,1.85h0A2.66,2.66,0,0,1,89.22,264.09Z"/><path class="cls-4" d="M77.06,273.64a1,1,0,0,1,.06-.76c-.05.1-.6-.94-.62-1.06a1.41,1.41,0,0,1,.16-1.08,2.25,2.25,0,0,1,2.51-.81,2,2,0,0,1,.59.58,5.46,5.46,0,0,1,1.06,2.16,2.93,2.93,0,0,1-.43,2.31,2,2,0,0,1-2.12.81,1.06,1.06,0,0,1-.73-.6.62.62,0,0,1,.36-.8A1.06,1.06,0,0,1,77.06,273.64Z"/><path class="cls-12" d="M46.46,286.4c-1.61-1.33-3.34-2.92-3.46-5-.1-1.68.89-3.21,1.93-4.51a5.68,5.68,0,0,1,3.29-2.36c1.83-.26,3.45,1.13,4.76,2.46,4.22,4.28,8.09,8.92,12,13.54a2.79,2.79,0,0,1,.83,1.64,2.57,2.57,0,0,1-.64,1.48,19.07,19.07,0,0,1-2.93,3.16c-1.39,1.2-1.85,1.16-3.24,0L51,290.21Z"/><polygon class="cls-4" points="30.22 320.13 26.92 362.29 4.15 397.13 4.15 397.13 4.15 397.13 7.26 399.44 15.56 389.6 15.55 389.6 35 366.52 35.55 365.87 35.85 364.46 44.88 322.26 30.22 320.13"/><path class="cls-4" d="M67.78,408.24l1.19-.17-1.31-12.81,0-.37-1.19-12.46L65.27,369.6l-1.14-12.84,0-.25-.26-.79-3.07-9.37c-1-3.13-2.07-6.24-3.05-9.38-2-6.27-4-12.54-5.91-18.85l-13.74,5.52c3,5.87,5.89,11.78,8.78,17.69,1.46,2.95,2.86,5.93,4.29,8.89l4.15,8.65,2.41,11.83,2.54,12.63,2.36,12h0l.13.65,2.39,12.65h0Z"/><path class="cls-6" d="M64.76,407.87l.3,1.62a1.76,1.76,0,0,0,1.55,1.6l8.44.12c1.17,0,1.79-1.8,1-2.91s-2.92-2.28-7.25-1.56Z"/><path class="cls-6" d="M4.21,397.15s-.46.62-1,1.33a1.79,1.79,0,0,0-.06,2.24L9,406.84c.8.85,2.54,0,2.76-1.32.26-1.54-.41-3.69-3.95-6.29Z"/><path class="cls-13" d="M66.56,362.14a47.64,47.64,0,0,0-1.93-10.79h0L57.17,325.3,38,326.9l12.57,27.83.86,2.44q.93,2.63,1.6,5.31l10.4,41.42L69,402.78Z"/><path class="cls-14" d="M46.67,324.88l-19.53.58-2.25,30.12v4.52a6.15,6.15,0,0,1-.89,3.18L5.85,393.16l4.43,4,24.47-26.88a17,17,0,0,0,4.14-8.35L40,356.06Z"/><g class="cls-15"><path d="M55,293.47c-.3-1.56-.49-3.11-.67-4.64a36.35,36.35,0,0,0-.69-4.41c-.41-1.39-.91-2.91-1.32-4.39a41.48,41.48,0,0,1-1.34-5,20.61,20.61,0,0,1,2.63,4.49A29.53,29.53,0,0,1,55.31,284a16.69,16.69,0,0,1,.36,4.84A21.37,21.37,0,0,1,55,293.47Z"/></g><path class="cls-16" d="M42.32,271.67s1.53,3.47,8.32,2.47c0,0,4.4,9.3,4.28,13.12s.29,14.59.29,14.59,1.16,17.25,2.5,23.35a1,1,0,0,1-.64,1.16c-3.61,1.34-18.33,6.13-29.9-.25a1,1,0,0,1-.5-1.09l2.55-22.23,3.44-23.41S37,273,42.32,271.67Z"/><path class="cls-4" d="M10.49,314.45a9.65,9.65,0,0,0-.74,1.6,9.92,9.92,0,0,0-.28,1.88,6.89,6.89,0,0,1-.62,2,3.27,3.27,0,0,1-1,1.27.65.65,0,0,1-.4.16.56.56,0,0,1-.44-.59,3.62,3.62,0,0,1,.18-.79.66.66,0,0,0-.18-.69l-2,2.58c-.26.34-.52.69-.81,1a1.29,1.29,0,0,1-.5.4.46.46,0,0,1-.57-.19c-.1-.22,0-.46.18-.66.45-.63.91-1.26,1.36-1.9.14-.2.57-.71.17-.7l-2,2.28a1.84,1.84,0,0,1-.91.66c-.21,0-.46,0-.52-.23a.64.64,0,0,1,.18-.51l2.19-2.77a.53.53,0,0,0,.15-.26c0-.08,0-.25-.14-.24s-.3.21-.36.27c-.23.21-.43.46-.67.66a14.42,14.42,0,0,1-1.44,1.14,1.17,1.17,0,0,1-.43.22A.5.5,0,0,1,.49,321a.51.51,0,0,1-.08-.54A1.41,1.41,0,0,1,.75,320L3,317.65c.06-.06.15-.1.17-.18s0-.26-.12-.28a13,13,0,0,1-2.66.88.42.42,0,0,1-.35,0,.26.26,0,0,1,0-.28.66.66,0,0,1,.17-.24,4.65,4.65,0,0,1,1.6-.81,16.83,16.83,0,0,0,1.46-.9,10.8,10.8,0,0,0,1.21-.93A7.25,7.25,0,0,1,7,313.61c.54-.15.93-.69,1.34-1.07A7.66,7.66,0,0,1,10.49,314.45Z"/><path class="cls-4" d="M44,281.14,26.12,298.39c-1.54,1.4-2.86,3-4.28,4.5l-4.2,4.57-8.41,9.17-2.85-2.37,7.52-10,3.76-5,1.89-2.51c.32-.42.61-.85,1-1.25l1-1.17,16.52-18.85Z"/><path class="cls-17" d="M34.5,277.38c1.33-1.6,2.92-3.33,5-3.45A6.88,6.88,0,0,1,44,275.87a5.61,5.61,0,0,1,2.35,3.3c.26,1.82-1.13,3.44-2.46,4.74C39.63,288.13,35,292,30.36,295.86a2.72,2.72,0,0,1-1.64.82,2.55,2.55,0,0,1-1.48-.63,19.1,19.1,0,0,1-3.15-2.94c-1.2-1.4-1.16-1.86,0-3.25l6.6-7.9Z"/><path class="cls-18" d="M256,63.53H143.37a33.31,33.31,0,0,0-33.31,33.31V377a33.3,33.3,0,0,0,33.31,33.31H256A33.32,33.32,0,0,0,289.28,377V96.84A33.31,33.31,0,0,0,256,63.53Z"/><path class="cls-19" d="M260,72.6H237.15a11.08,11.08,0,0,1-10.69,8.19H172.88a11.07,11.07,0,0,1-10.69-8.19h-22.9a23.21,23.21,0,0,0-23.2,23.2V378.7a23.2,23.2,0,0,0,23.2,23.2H260a23.19,23.19,0,0,0,23.2-23.2V95.8A23.2,23.2,0,0,0,260,72.6Z"/><path class="cls-20" d="M259.34,402.57H141.22a23.35,23.35,0,0,1-10.39-1.78,18,18,0,0,1-6.29-4.27v-41.9H274.83v41.9a20.12,20.12,0,0,1-5.62,3.84A22.93,22.93,0,0,1,259.34,402.57Z"/><rect class="cls-21" x="124.77" y="300.69" width="67.92" height="7.66" rx="3.01"/><path class="cls-22" d="M257.3,313.66H128.61a3.83,3.83,0,0,0-3.84,3.83h0a3.83,3.83,0,0,0,3.84,3.83H257.3a3.83,3.83,0,0,0,3.83-3.83h0A3.83,3.83,0,0,0,257.3,313.66Z"/><path class="cls-23" d="M195.74,329.87H154a5,5,0,0,0-5,5h0a5,5,0,0,0,5,5h41.71a5,5,0,0,0,5-5h0A5,5,0,0,0,195.74,329.87Z"/><path class="cls-24" d="M264.88,342.86H150.75a1.72,1.72,0,0,0-1.72,1.72h0a1.72,1.72,0,0,0,1.72,1.72H264.88a1.72,1.72,0,0,0,1.72-1.72h0A1.72,1.72,0,0,0,264.88,342.86Z"/><circle class="cls-25" cx="134.29" cy="338.04" r="9.52"/><path class="cls-26" d="M195.74,101.61H154a5,5,0,0,0-5,5h0a5,5,0,0,0,5,5h41.71a5,5,0,0,0,5-5h0A5,5,0,0,0,195.74,101.61Z"/><rect class="cls-27" x="149.03" y="114.6" width="117.57" height="3.44" rx="1.35"/><circle class="cls-28" cx="134.29" cy="109.78" r="9.52"/><path class="cls-29" d="M268.05,293.49H131.32a6.79,6.79,0,0,1-6.78-6.79V133.28a6.79,6.79,0,0,1,6.78-6.78H268.05a6.78,6.78,0,0,1,6.78,6.78V286.7a6.79,6.79,0,0,1-6.78,6.79Z"/><path class="cls-30" d="M266.41,270.74a.55.55,0,0,0-.55-.1L251,276.3a.54.54,0,0,0,.07,1l7.08,1.68,1.68,7.08a.54.54,0,0,0,.53.42h0a.53.53,0,0,0,.48-.34l5.66-14.82A.54.54,0,0,0,266.41,270.74Zm-15.06,6.06,14-5.32-7,7Zm9.06,9.06-1.66-7,7-7Z"/><path class="cls-31" d="M146.23,277.38c2.06-4.87-2.77-8.93-8-5.26-5.24-3.67-10.07.39-8,5.26a6.9,6.9,0,0,0,1.44,2.14l6.57,6.73h0l6.58-6.73A7.07,7.07,0,0,0,146.23,277.38Z"/><path class="cls-32" d="M164.71,286.7a.78.78,0,0,1-.33-.07l-3-1.28a7.73,7.73,0,0,1-2.66.48,7.62,7.62,0,1,1,5.75-2.63l1,2.33a.86.86,0,0,1-.18.93A.85.85,0,0,1,164.71,286.7Zm-3.3-2.46,3,1.28L163.28,283l.23-.24a6.56,6.56,0,1,0-2.3,1.57Z"/><ellipse class="cls-33" cx="200.83" cy="248.74" rx="15.77" ry="62.62" transform="translate(-49.82 447.18) rotate(-89.45)"/><path class="cls-34" d="M190.5,207.55,184,216.89a4.35,4.35,0,0,0,1.06,6l49.41,34.67a4.34,4.34,0,0,0,6-1.06L247,247.2a4.34,4.34,0,0,0-1.06-6l-49.41-34.67A4.34,4.34,0,0,0,190.5,207.55Z"/><path class="cls-35" d="M154.74,197l4-7.7a1.47,1.47,0,0,0-.05-1.46,1.45,1.45,0,0,0-1.28-.73l-7.6-.08a1.47,1.47,0,0,0-1.31.75l-4.84,8.19a1.46,1.46,0,0,0,0,1.51l3.74,6.62a1.47,1.47,0,0,0,1.25.77,1.49,1.49,0,0,0,1.31-.67Z"/><path class="cls-36" d="M141.53,219.27c-1.35,1.92,5.95,10.81,13.38,16s16.45,9.52,17.8,7.6l23.71-29.37L176.6,202.63,161.09,187Z"/><path class="cls-37" d="M157.93,237c5.82,3.44,11.24,6.31,13.15,6.2l7.07-12.42c-4.33-3.35-9.11-6.7-9.11-6.7l-10.22-.73S165.24,225,157.93,237Z"/><path class="cls-38" d="M142.68,209.05c-2,2.82,5.24,11.29,16.13,18.93s21.31,11.55,23.29,8.74l34.77-43.07-22.75-16-22.76-16Z"/><path class="cls-39" d="M216.93,193.69l-12,14.69c-13.17,1.71-40.36-18.25-42.95-31.28l9.9-16.18Z"/><path class="cls-37" d="M163.63,231.14c9,5.5,16.79,8,18.47,5.58l34.77-43.07-9.81-6.89-25.48,36.3A18.56,18.56,0,0,1,163.63,231.14Z"/><path class="cls-40" d="M171.36,161.71s18.9-31.86,19.58-96.79l58.64,33.72,51.66,43.69c-60.84,22.71-84.37,51.32-84.37,51.32-2,2.81-13.76-2.06-26.33-10.87S169.38,164.52,171.36,161.71Z"/><path class="cls-37" d="M244.9,96l4.68,2.69,51.66,43.69c-60.84,22.71-84.37,51.32-84.37,51.32-1.22,1.74-6.18.55-12.75-2.69l31.67-45.13c16.15-23-10.51-52.76-10.51-52.76S233.2,94.17,244.9,96Z"/><path class="cls-41" d="M192.31,60c-6.89,9.82,12.85,35.55,44.09,57.47s62.14,31.74,69,21.92-12.85-35.54-44.08-57.47S199.2,50.15,192.31,60Z"/><path class="cls-42" d="M198.68,63.13c-5.44,7.74,12.9,30,41,49.68s55.21,29.38,60.65,21.63-12.91-30-41-49.68S204.11,55.38,198.68,63.13Z"/><path class="cls-43" d="M198.15,69.35c2.79,10.29,19,27.69,41.49,43.46s44.35,25.12,55,24.24c-2.79-10.29-19-27.69-41.49-43.45S208.77,68.48,198.15,69.35Z"/><path class="cls-44" d="M250.8,120.79l7.6-15.3-9.14-6.41-9.13-6.41L228.33,105c3.46,2.76,7.13,5.52,11,8.23S247,118.47,250.8,120.79Z"/><path class="cls-45" d="M240,92.81c-1.11,1.58,2.08,5.75,7.13,9.29s10,5.13,11.16,3.54-2.08-5.75-7.13-9.29S241.14,91.22,240,92.81Z"/><rect class="cls-46" x="354.15" y="322.16" width="88.76" height="88.76" rx="14.61"/><rect class="cls-47" x="354.15" y="327.85" width="83.08" height="83.08" rx="14.61"/><path class="cls-48" d="M428.34,355.92a23.7,23.7,0,0,0-1.52-7.94,16,16,0,0,0-3.78-5.8,16.21,16.21,0,0,0-5.79-3.77,24.26,24.26,0,0,0-7.93-1.52c-3.5-.16-4.61-.2-13.49-.2s-10,0-13.48.19a23.64,23.64,0,0,0-7.93,1.52,16.74,16.74,0,0,0-9.57,9.57,23.74,23.74,0,0,0-1.52,7.93c-.17,3.5-.21,4.61-.21,13.49s0,10,.19,13.48a24.21,24.21,0,0,0,1.52,7.94,16.82,16.82,0,0,0,9.57,9.57,24.32,24.32,0,0,0,7.94,1.52c3.48.15,4.6.19,13.48.19s10,0,13.47-.19a24.21,24.21,0,0,0,7.94-1.52,16.76,16.76,0,0,0,9.57-9.57,24.32,24.32,0,0,0,1.52-7.94c.15-3.49.19-4.6.19-13.48S428.5,359.4,428.34,355.92Zm-5.89,26.7a17.9,17.9,0,0,1-1.12,6.07,10.84,10.84,0,0,1-6.21,6.2,17.89,17.89,0,0,1-6.07,1.13c-3.45.15-4.48.19-13.21.19s-9.77,0-13.21-.19a17.83,17.83,0,0,1-6.07-1.13,9.87,9.87,0,0,1-3.75-2.44,10,10,0,0,1-2.44-3.75,17.89,17.89,0,0,1-1.13-6.07c-.15-3.45-.19-4.48-.19-13.21s0-9.77.19-13.21a17.83,17.83,0,0,1,1.13-6.07,9.89,9.89,0,0,1,2.45-3.76,10.36,10.36,0,0,1,3.75-2.44,18.22,18.22,0,0,1,6.07-1.12c3.45-.15,4.49-.19,13.21-.19s9.78,0,13.21.19a18.1,18.1,0,0,1,6.07,1.12,10.76,10.76,0,0,1,6.2,6.2,18,18,0,0,1,1.12,6.07c.16,3.45.19,4.48.19,13.21S422.61,379.17,422.45,382.62Z"/><path class="cls-48" d="M395.83,352.59a16.8,16.8,0,1,0,16.8,16.8A16.8,16.8,0,0,0,395.83,352.59Zm0,27.7a10.9,10.9,0,1,1,10.9-10.9A10.9,10.9,0,0,1,395.83,380.29Z"/><path class="cls-48" d="M417.21,351.93a3.92,3.92,0,1,1-3.92-3.92A3.91,3.91,0,0,1,417.21,351.93Z"/><rect class="cls-49" x="267.96" y="329.4" width="88.76" height="88.76" rx="14.61" transform="translate(624.68 747.57) rotate(180)"/><rect class="cls-50" x="267.49" y="335.09" width="83.08" height="83.08" rx="14.61" transform="translate(618.07 753.25) rotate(180)"/><path class="cls-48" d="M338.05,360.15a24.79,24.79,0,0,1-6.88,1.88,11.87,11.87,0,0,0,5.25-6.6,23.77,23.77,0,0,1-7.57,2.89,11.94,11.94,0,0,0-20.66,8.17,12.77,12.77,0,0,0,.27,2.73,33.83,33.83,0,0,1-24.62-12.5,12,12,0,0,0,3.67,16,11.77,11.77,0,0,1-5.39-1.48v.14a12,12,0,0,0,9.57,11.73,11.85,11.85,0,0,1-3.14.4,10.62,10.62,0,0,1-2.26-.21,12.06,12.06,0,0,0,11.16,8.32,24,24,0,0,1-14.81,5.1,22.26,22.26,0,0,1-2.85-.17,33.63,33.63,0,0,0,18.32,5.36c22,0,34-18.2,34-34,0-.52,0-1-.05-1.54A23.87,23.87,0,0,0,338.05,360.15Z"/><rect class="cls-51" x="290.13" y="246.07" width="88.76" height="88.76" rx="14.61"/><rect class="cls-52" x="290.13" y="251.76" width="83.08" height="83.08" rx="14.61"/><path class="cls-48" d="M340,270.74h6.23V259.88a82.8,82.8,0,0,0-9.08-.48c-9,0-15.14,5.65-15.14,16V285h-9.91v12.13H322v30.52h12.16V297.13h9.51L345.2,285h-11v-8.36c0-3.5.95-5.9,5.84-5.9Z"/><path class="cls-53" d="M93.88,34.22H30.07c-9.62,0-9.62-11-1.3-14,8-2.83,15.12,3.74,15.12,3.74S46.21-2.9,68.17.26C85.49,2.75,84.48,20,84.48,20s3.57-7.11,12.91-4.42C107.14,18.42,106.08,34.22,93.88,34.22Z"/><path class="cls-54" d="M114.23,39.48H68c-7,0-7-8-.94-10.12,5.83-2.05,11,2.71,11,2.71S79.7,12.59,95.61,14.88c12.55,1.8,11.82,14.32,11.82,14.32s2.58-5.15,9.35-3.2C123.84,28,123.07,39.48,114.23,39.48Z"/><path class="cls-55" d="M123.67,404.79s-.93-32.75-12.22-35.17-12.9,20.42,0,43Z"/><path class="cls-48" d="M117.65,408.57c-5.38-22.09-7.7-30.22-7.72-30.3l.36-.1c0,.08,2.34,8.21,7.72,30.31Z"/><path class="cls-56" d="M127.58,412.61s17.19-16.66,10.75-24.72-22.58,5.91-26.88,24.72Z"/><path class="cls-48" d="M121,410.27l-.34-.15c4.26-9.86,12.59-17.72,12.67-17.8l.26.28C133.53,392.67,125.26,400.48,121,410.27Z"/><path class="cls-57" d="M113,412.61s-4.39-18.94-13.26-17.33,0,17.2,0,17.2Z"/><rect class="cls-48" x="102.67" y="398.85" width="0.38" height="11.41" transform="translate(-101.32 40.47) rotate(-15.02)"/></g></g></svg>